<svg width="48" height="48" viewBox="0 0 48 48" fill="none" xmlns="http://www.w3.org/2000/svg">
<g clip-path="url(#clip0_7225_49728)">
<rect width="48" height="48" rx="24" fill="white"/>
<path d="M48 24.002C48 30.3671 45.4714 36.4716 40.9706 40.9725C36.4697 45.4734 30.3652 48.002 24 48.002C17.6348 48.002 11.5303 45.4734 7.02944 40.9725C2.52856 36.4716 0 30.3671 0 24.002C0 17.6368 2.52856 11.5323 7.02944 7.03139C11.5303 2.53052 17.6348 0.00195313 24 0.00195312C30.3652 0.00195313 36.4697 2.53052 40.9706 7.03139C45.4714 11.5323 48 17.6368 48 24.002V24.002ZM36.09 14.912C35.8757 14.6984 35.6206 14.5303 35.3398 14.4176C35.059 14.3049 34.7584 14.25 34.456 14.2562C34.1535 14.2624 33.8554 14.3294 33.5795 14.4535C33.3035 14.5775 33.0554 14.7559 32.85 14.978L22.431 28.253L16.152 21.971C15.7255 21.5735 15.1613 21.3571 14.5784 21.3674C13.9955 21.3777 13.4394 21.6138 13.0271 22.0261C12.6149 22.4383 12.3788 22.9945 12.3685 23.5774C12.3582 24.1603 12.5746 24.7244 12.972 25.151L20.91 33.092C21.1238 33.3054 21.3785 33.4736 21.6588 33.5865C21.939 33.6994 22.2391 33.7547 22.5412 33.7491C22.8433 33.7435 23.1412 33.6771 23.4171 33.5539C23.693 33.4307 23.9412 33.2532 24.147 33.032L36.123 18.062C36.5313 17.6374 36.7568 17.0698 36.7512 16.4808C36.7456 15.8919 36.5093 15.3286 36.093 14.912H36.09Z" fill="#7B6453"/>
</g>
<defs>
<clipPath id="clip0_7225_49728">
<rect width="48" height="48" rx="24" fill="white"/>
</clipPath>
</defs>
</svg>
