<svg width="48" height="48" viewBox="0 0 48 48" fill="none" xmlns="http://www.w3.org/2000/svg">
<rect width="48" height="48" rx="8" fill="#F1EEEC"/>
<path d="M36.9996 15.334L29.3541 22.9794C29.0832 23.2502 28.7159 23.4023 28.3329 23.4023C27.9499 23.4023 27.5826 23.2502 27.3117 22.9794L25.0208 20.6885C24.7499 20.4177 24.3826 20.2656 23.9996 20.2656C23.6166 20.2656 23.2492 20.4177 22.9783 20.6885L16.7773 26.8895" stroke="#7B6453" stroke-width="2.88889" stroke-linecap="round" stroke-linejoin="round"/>
<path d="M32.5 14H38V20" stroke="#7B6453" stroke-width="3" stroke-linecap="round" stroke-linejoin="round"/>
<path d="M11 11V32.3778C11 33.9956 11 34.8044 11.327 35.4227C11.6146 35.9662 12.0735 36.4081 12.638 36.6851C13.28 37 14.12 37 15.8 37H38" stroke="#7B6453" stroke-width="2.88889" stroke-linecap="round"/>
</svg>
