<svg width="48" height="48" viewBox="0 0 48 48" fill="none" xmlns="http://www.w3.org/2000/svg">
<rect width="48" height="48" rx="8" fill="#F1EEEC"/>
<path d="M36.9996 26.8887L29.3541 19.2432C29.0832 18.9724 28.7159 18.8203 28.3329 18.8203C27.9499 18.8203 27.5826 18.9724 27.3117 19.2432L25.0208 21.5341C24.7499 21.8049 24.3826 21.957 23.9996 21.957C23.6166 21.957 23.2492 21.8049 22.9783 21.5341L16.7773 15.3331" stroke="#7B6453" stroke-width="2.88889" stroke-linecap="round" stroke-linejoin="round"/>
<path d="M32.5 28H38V22" stroke="#7B6453" stroke-width="3" stroke-linecap="round" stroke-linejoin="round"/>
<path d="M11 11V32.3778C11 33.9956 11 34.8044 11.3391 35.4227C11.6374 35.9662 12.1133 36.4081 12.6987 36.6851C13.3644 37 14.2356 37 15.9778 37H39" stroke="#7B6453" stroke-width="2.88889" stroke-linecap="round"/>
</svg>
