<svg width="48" height="48" viewBox="0 0 48 48" fill="none" xmlns="http://www.w3.org/2000/svg">
<rect width="48" height="48" rx="8" fill="#F1EEEC"/>
<path d="M34.3601 9.15973L34.9788 9.24948C35.9404 9.40174 37.0174 9.65657 37.6793 10.3185C38.3412 10.9804 38.5977 12.059 38.7499 13.0207L38.8397 13.6377C39.0416 15.0962 39.0945 17.0082 38.7499 19.1302C38.0704 23.3181 35.841 28.3138 30.2427 32.1843C30.2182 32.4705 30.2091 32.7578 30.2155 33.045L30.2427 33.9152C30.2588 34.4954 30.2491 35.074 30.0889 35.6302C29.7844 36.6879 28.6993 37.3851 27.6848 37.8852L27.188 38.1208L26.5469 38.4028L26.1093 38.5791C24.9762 39.0119 23.6091 39.3148 22.7148 38.4189C22.3093 38.0134 22.1218 37.4621 21.9711 36.9107L21.8974 36.6351C21.641 35.6622 21.3509 34.6958 20.9887 33.7598C20.8887 33.8814 20.7828 33.998 20.6713 34.1092C19.7978 34.9811 18.6134 35.4202 17.429 35.76L16.6421 35.9763L15.8568 36.1847L15.0907 36.377L14.3983 36.5373L13.5697 36.7136L13.052 36.8146C12.7938 36.8624 12.5279 36.8466 12.2772 36.7688C12.0264 36.6909 11.7984 36.5532 11.6127 36.3675C11.427 36.1818 11.2893 35.9538 11.2114 35.703C11.1335 35.4523 11.1178 35.1863 11.1656 34.9282L11.3435 34.0451L11.5503 33.1187L11.749 32.3013L12.1096 30.947C12.467 29.6328 12.9014 28.2785 13.8726 27.3089L14.0313 27.1566L12.8084 26.7175L11.5791 26.2943C10.8595 26.0571 10.103 25.8071 9.58055 25.2846C8.62533 24.3294 9.03082 22.8389 9.50682 21.6673L9.77287 21.0471L9.99245 20.5646C10.5005 19.4844 11.2217 18.2407 12.3693 17.9105C12.9254 17.7503 13.5024 17.7407 14.0842 17.7551L14.9544 17.7839C15.2429 17.7914 15.5298 17.7823 15.8151 17.7567C19.6841 12.1584 24.6813 9.92903 28.8692 9.24948C30.6852 8.95026 32.5353 8.92002 34.3601 9.15973ZM29.3821 12.4132C25.8593 12.9854 21.5785 14.8718 18.2384 19.8963C17.8329 20.5053 17.1486 20.7954 16.4514 20.906C16.0571 20.9701 15.6596 20.9862 15.2606 20.9862L14.0633 20.9685C13.8646 20.9675 13.6653 20.9707 13.4655 20.9781C12.9783 21.6256 12.6385 22.3949 12.3837 23.1594L14.7878 24.0329L15.7766 24.4063C17.5845 25.1147 19.3347 25.9722 20.6809 27.3185C22.9488 29.5863 24.1011 32.5529 24.9345 35.5837C25.6654 35.3272 26.3994 35.0003 27.0213 34.5339L27.0309 33.9361L27.0133 32.7405C27.0133 32.343 27.0293 31.9455 27.0934 31.548C27.2024 30.8509 27.4941 30.1665 28.1031 29.761C33.1276 26.421 35.014 22.1401 35.5862 18.6173C35.8747 16.8383 35.8266 15.2484 35.6647 14.0769C35.6024 13.5908 35.4989 13.1109 35.3554 12.6424C34.8868 12.4994 34.407 12.3965 33.921 12.3347C32.4122 12.1392 30.883 12.1646 29.3821 12.4132ZM16.1373 29.5751C15.5763 30.253 15.3151 31.1426 15.1051 32.024L14.932 32.7741L14.8439 33.1363L15.9561 32.8751C16.8376 32.6667 17.7287 32.4023 18.4051 31.8413C18.7056 31.5406 18.8744 31.1328 18.8742 30.7076C18.8741 30.2825 18.705 29.8748 18.4043 29.5743C18.1036 29.2738 17.6958 29.105 17.2706 29.1052C16.8455 29.1053 16.4378 29.2744 16.1373 29.5751ZM25.2038 18.2439C25.5014 17.9462 25.8547 17.71 26.2436 17.5489C26.6325 17.3877 27.0493 17.3047 27.4703 17.3046C27.8912 17.3046 28.3081 17.3874 28.697 17.5484C29.086 17.7094 29.4394 17.9455 29.7371 18.2431C30.0348 18.5407 30.271 18.894 30.4321 19.2829C30.5933 19.6718 30.6763 20.0886 30.6764 20.5096C30.6764 20.9305 30.5936 21.3474 30.4326 21.7363C30.2715 22.1253 30.0355 22.4787 29.7379 22.7764C29.1366 23.3776 28.3211 23.7154 27.4708 23.7154C26.6205 23.7154 25.8051 23.3776 25.2038 22.7764C24.6025 22.1751 24.2648 21.3597 24.2648 20.5093C24.2648 19.659 24.6025 18.8436 25.2038 18.2423V18.2439Z" fill="#7B6453"/>
</svg>
