<svg width="300" height="200" viewBox="0 0 300 200" fill="none" xmlns="http://www.w3.org/2000/svg">
<rect width="300" height="200" fill="white"/>
<path d="M15.5771 31.4111H284.423C287.828 31.4112 290.589 34.1718 290.589 37.5771V64.8662C290.589 68.2715 287.828 71.0321 284.423 71.0322H15.5771C12.1718 71.0322 9.41131 68.2715 9.41113 64.8662V37.5771C9.4112 34.1718 12.1718 31.4112 15.5771 31.4111Z" fill="white" fill-opacity="0.9"/>
<path d="M15.5771 31.4111H284.423C287.828 31.4112 290.589 34.1718 290.589 37.5771V64.8662C290.589 68.2715 287.828 71.0321 284.423 71.0322H15.5771C12.1718 71.0322 9.41131 68.2715 9.41113 64.8662V37.5771C9.4112 34.1718 12.1718 31.4112 15.5771 31.4111Z" stroke="#E3DED9" stroke-width="0.822158"/>
<g clip-path="url(#clip0_7944_27614)">
<path d="M29.4883 44.0918C29.9239 44.0919 30.3351 44.2639 30.6475 44.5762L31.8066 45.7354H38.8691C39.7733 45.7355 40.5126 46.4757 40.5127 47.3799V57.2461C40.5126 58.1503 39.7734 58.8905 38.8691 58.8906H25.7139C24.8097 58.8904 24.0704 58.1503 24.0703 57.2461V45.7354C24.0705 44.8313 24.8099 44.0921 25.7139 44.0918H29.4883ZM25.7139 47.3799V57.2461H38.8691V47.3799H25.7139Z" fill="#29241D"/>
</g>
<path d="M51.3802 47.5771V40.8919H48.9535V40.0465H54.7463V40.8919H52.3196V47.5771H51.3802ZM56.4581 40.8658C56.1136 40.8658 55.8318 40.584 55.8318 40.2396C55.8318 39.8951 56.1136 39.6133 56.4581 39.6133C56.8025 39.6133 57.0843 39.8951 57.0843 40.2396C57.0843 40.584 56.8025 40.8658 56.4581 40.8658ZM55.9988 47.5771V41.9513H56.9069V47.5771H55.9988ZM58.6186 47.5771V41.9513H59.5267V42.7968H59.6102C59.892 42.2018 60.4191 41.8522 61.2489 41.8522C62.5118 41.8522 63.2164 42.5984 63.2164 43.9344V47.5771H62.3083V44.1536C62.3083 43.1412 61.8908 42.6558 60.9932 42.6558C60.0955 42.6558 59.5267 43.2612 59.5267 44.2476V47.5771H58.6186ZM66.1493 47.5771V40.8919H63.7226V40.0465H69.5154V40.8919H67.0887V47.5771H66.1493ZM71.2272 40.8658C70.8827 40.8658 70.6009 40.584 70.6009 40.2396C70.6009 39.8951 70.8827 39.6133 71.2272 39.6133C71.5716 39.6133 71.8534 39.8951 71.8534 40.2396C71.8534 40.584 71.5716 40.8658 71.2272 40.8658ZM70.7679 47.5771V41.9513H71.676V47.5771H70.7679ZM73.3878 47.5771V41.9513H74.2958V42.7968H74.3793C74.6611 42.2018 75.1882 41.8522 76.018 41.8522C77.281 41.8522 77.9855 42.5984 77.9855 43.9344V47.5771H77.0774V44.1536C77.0774 43.1412 76.6599 42.6558 75.7623 42.6558C74.8647 42.6558 74.2958 43.2612 74.2958 44.2476V47.5771H73.3878ZM81.6282 47.6189C80.4696 47.6189 79.9843 47.191 79.9843 46.1159V42.7028H79.0971V41.9513H79.9843V40.4953H80.9237V41.9513H82.1553V42.7028H80.9237V45.8863C80.9237 46.5491 81.1533 46.8152 81.7378 46.8152C81.8996 46.8152 81.9883 46.81 82.1553 46.7943V47.5667C81.9779 47.598 81.8056 47.6189 81.6282 47.6189ZM91.316 43.6867H95.5271V48.3788H94.7576V44.4135H92.0642V48.4215H91.316V43.6867ZM92.8765 38.6206H93.6567V43.9111H92.8765V38.6206ZM93.3361 40.9399H95.944V41.688H93.3361V40.9399ZM91.7008 47.1817H95.121V47.9299H91.7008V47.1817ZM87.137 39.5718V42.1583H90.0762V39.5718H87.137ZM86.4957 38.984H90.7282V42.7462H86.4957V38.984ZM87.2866 40.1062L87.6821 39.9993C87.7747 40.2558 87.8531 40.5373 87.9172 40.8437C87.9885 41.1429 88.0312 41.403 88.0455 41.6239L87.618 41.7415C87.6108 41.5206 87.5752 41.2569 87.5111 40.9506C87.4541 40.6442 87.3793 40.3627 87.2866 40.1062ZM87.6393 46.2198L88.1738 46.1556C88.2521 46.4478 88.3163 46.7684 88.3661 47.1176C88.4231 47.4596 88.4516 47.7588 88.4516 48.0154L87.8959 48.0902C87.903 47.8337 87.8816 47.5344 87.8317 47.1924C87.7819 46.8432 87.7177 46.519 87.6393 46.2198ZM88.6654 46.1556L89.1784 46.0488C89.3067 46.3195 89.4207 46.6152 89.5204 46.9359C89.6273 47.2565 89.6986 47.5344 89.7342 47.7695L89.1891 47.8978C89.1606 47.6627 89.0965 47.3812 88.9967 47.0534C88.9041 46.7257 88.7937 46.4264 88.6654 46.1556ZM89.6915 46.0167L90.1831 45.8136C90.3755 46.063 90.5572 46.3373 90.7282 46.6366C90.9063 46.9359 91.0346 47.1959 91.113 47.4168L90.5786 47.652C90.5002 47.424 90.3755 47.1568 90.2045 46.8504C90.0406 46.544 89.8696 46.2661 89.6915 46.0167ZM86.7309 46.177L87.2973 46.3373C87.2475 46.7292 87.1691 47.1176 87.0622 47.5023C86.9624 47.8871 86.7986 48.1971 86.5705 48.4322L86.0148 48.1329C86.2285 47.912 86.3888 47.627 86.4957 47.2779C86.6097 46.9216 86.6881 46.5547 86.7309 46.177ZM89.467 39.9673L89.9373 40.1383C89.8447 40.4162 89.7485 40.7119 89.6487 41.0254C89.5489 41.3389 89.4492 41.599 89.3494 41.8056L89.0074 41.6773C89.0573 41.5206 89.1107 41.3425 89.1677 41.1429C89.2319 40.9363 89.2889 40.7297 89.3387 40.523C89.3958 40.3164 89.4385 40.1311 89.467 39.9673ZM86.1965 45.0548C86.5884 45.0334 87.0408 45.012 87.5538 44.9906C88.074 44.9621 88.6262 44.9336 89.2105 44.9051C89.7948 44.8695 90.3791 44.8374 90.9633 44.8089L90.942 45.4502C90.3791 45.4859 89.8126 45.525 89.2426 45.5678C88.6725 45.6034 88.131 45.639 87.618 45.6747C87.1049 45.7032 86.6418 45.7317 86.2285 45.7602L86.1965 45.0548ZM86.4209 43.4836H90.803V44.1249H86.4209V43.4836ZM88.2913 39.2725H88.8364V42.4683H88.9219V45.2365H88.2058V42.4683H88.2913V39.2725ZM102.004 43.6867H106.215V48.3788H105.446V44.4135H102.752V48.4215H102.004V43.6867ZM103.565 38.6206H104.345V43.9111H103.565V38.6206ZM104.024 40.9399H106.632V41.688H104.024V40.9399ZM102.389 47.1817H105.809V47.9299H102.389V47.1817ZM97.8251 39.5718V42.1583H100.764V39.5718H97.8251ZM97.1838 38.984H101.416V42.7462H97.1838V38.984ZM97.9747 40.1062L98.3701 39.9993C98.4628 40.2558 98.5412 40.5373 98.6053 40.8437C98.6765 41.1429 98.7193 41.403 98.7335 41.6239L98.306 41.7415C98.2989 41.5206 98.2633 41.2569 98.1991 40.9506C98.1421 40.6442 98.0673 40.3627 97.9747 40.1062ZM98.3274 46.2198L98.8618 46.1556C98.9402 46.4478 99.0043 46.7684 99.0542 47.1176C99.1112 47.4596 99.1397 47.7588 99.1397 48.0154L98.5839 48.0902C98.591 47.8337 98.5697 47.5344 98.5198 47.1924C98.4699 46.8432 98.4058 46.519 98.3274 46.2198ZM99.3534 46.1556L99.8665 46.0488C99.9947 46.3195 100.109 46.6152 100.208 46.9359C100.315 47.2565 100.387 47.5344 100.422 47.7695L99.8772 47.8978C99.8487 47.6627 99.7845 47.3812 99.6848 47.0534C99.5921 46.7257 99.4817 46.4264 99.3534 46.1556ZM100.38 46.0167L100.871 45.8136C101.064 46.063 101.245 46.3373 101.416 46.6366C101.594 46.9359 101.723 47.1959 101.801 47.4168L101.267 47.652C101.188 47.424 101.064 47.1568 100.893 46.8504C100.729 46.544 100.558 46.2661 100.38 46.0167ZM97.4189 46.177L97.9854 46.3373C97.9355 46.7292 97.8571 47.1176 97.7502 47.5023C97.6505 47.8871 97.4866 48.1971 97.2586 48.4322L96.7028 48.1329C96.9166 47.912 97.0769 47.627 97.1838 47.2779C97.2978 46.9216 97.3762 46.5547 97.4189 46.177ZM100.155 39.9673L100.625 40.1383C100.533 40.4162 100.437 40.7119 100.337 41.0254C100.237 41.3389 100.137 41.599 100.037 41.8056L99.6955 41.6773C99.7453 41.5206 99.7988 41.3425 99.8558 41.1429C99.9199 40.9363 99.9769 40.7297 100.027 40.523C100.084 40.3164 100.127 40.1311 100.155 39.9673ZM96.8845 45.0548C97.2764 45.0334 97.7289 45.012 98.2419 44.9906C98.762 44.9621 99.3143 44.9336 99.8985 44.9051C100.483 44.8695 101.067 44.8374 101.651 44.8089L101.63 45.4502C101.067 45.4859 100.501 45.525 99.9306 45.5678C99.3606 45.6034 98.819 45.639 98.306 45.6747C97.793 45.7032 97.3298 45.7317 96.9166 45.7602L96.8845 45.0548ZM97.109 43.4836H101.491V44.1249H97.109V43.4836ZM98.9794 39.2725H99.5245V42.4683H99.61V45.2365H98.8939V42.4683H98.9794V39.2725ZM108.545 42.3293H111.923V43.1095H108.545V42.3293ZM108.545 45.7067H111.976V46.4763H108.545V45.7067ZM116.091 39.3474H116.903V45.7281C116.903 45.9561 116.871 46.1449 116.807 46.2946C116.75 46.4371 116.636 46.544 116.465 46.6152C116.294 46.6865 116.066 46.7328 115.781 46.7542C115.503 46.7755 115.165 46.7862 114.766 46.7862C114.751 46.7007 114.726 46.6081 114.691 46.5083C114.662 46.4015 114.627 46.2981 114.584 46.1984C114.541 46.0915 114.498 45.9989 114.456 45.9205C114.776 45.9276 115.068 45.9348 115.332 45.9419C115.603 45.9419 115.785 45.9419 115.877 45.9419C115.963 45.9348 116.02 45.9169 116.048 45.8884C116.077 45.8599 116.091 45.8029 116.091 45.7174V39.3474ZM108.15 39.5611L108.951 39.8604V47.3955H108.15V39.5611ZM111.42 38.6206L112.104 39.2832C111.784 39.4329 111.427 39.5825 111.035 39.7321C110.651 39.8746 110.252 40.01 109.838 40.1383C109.425 40.2665 109.023 40.3877 108.631 40.5017C108.609 40.4019 108.57 40.2879 108.513 40.1596C108.463 40.0314 108.41 39.9209 108.353 39.8283C108.716 39.7214 109.087 39.6003 109.464 39.4649C109.849 39.3295 110.209 39.187 110.544 39.0374C110.886 38.8878 111.178 38.7488 111.42 38.6206ZM112.639 39.3474H116.54V40.149H113.451V48.3894H112.639V39.3474ZM121.51 44.9678V44.1223H125.017V44.9678H121.51ZM136.315 39.3046L136.924 38.8771C137.13 39.0552 137.344 39.2512 137.565 39.4649C137.786 39.6787 137.993 39.8924 138.185 40.1062C138.377 40.3128 138.531 40.5017 138.645 40.6727L137.993 41.1429C137.886 40.9719 137.74 40.7795 137.554 40.5658C137.369 40.3449 137.166 40.124 136.945 39.9031C136.731 39.6822 136.521 39.4827 136.315 39.3046ZM129.389 41.7628H138.901V42.5217H129.389V41.7628ZM129.228 44.8944C129.649 44.8161 130.141 44.7199 130.703 44.6059C131.273 44.4919 131.872 44.3707 132.499 44.2425C133.133 44.1071 133.764 43.9717 134.391 43.8363L134.455 44.5524C133.871 44.6878 133.279 44.8268 132.681 44.9693C132.089 45.1046 131.516 45.2365 130.96 45.3647C130.411 45.4859 129.912 45.5999 129.464 45.7067L129.228 44.8944ZM131.676 39.6894H132.478V47.3955C132.478 47.6591 132.442 47.8586 132.371 47.994C132.307 48.1294 132.185 48.2291 132.007 48.2932C131.843 48.3574 131.612 48.3966 131.313 48.4108C131.02 48.4322 130.654 48.4429 130.212 48.4429C130.198 48.3645 130.176 48.2754 130.148 48.1757C130.119 48.083 130.084 47.9869 130.041 47.8871C129.998 47.7873 129.959 47.7018 129.923 47.6306C130.265 47.6377 130.579 47.6413 130.864 47.6413C131.149 47.6484 131.338 47.6484 131.43 47.6413C131.523 47.6342 131.587 47.6128 131.623 47.5771C131.658 47.5486 131.676 47.4881 131.676 47.3955V39.6894ZM133.707 38.7274L134.273 39.4008C133.86 39.5433 133.393 39.6751 132.873 39.7962C132.36 39.9103 131.829 40.0171 131.281 40.1169C130.739 40.2166 130.212 40.3021 129.699 40.3734C129.677 40.2808 129.642 40.1703 129.592 40.0421C129.549 39.9067 129.503 39.7927 129.453 39.7001C129.952 39.6217 130.465 39.5326 130.992 39.4329C131.519 39.326 132.018 39.212 132.488 39.0908C132.959 38.9697 133.365 38.8486 133.707 38.7274ZM134.776 38.6847H135.62C135.613 39.6609 135.645 40.5979 135.716 41.4956C135.794 42.3863 135.905 43.2093 136.047 43.9646C136.19 44.7128 136.357 45.3647 136.55 45.9205C136.749 46.4692 136.967 46.8967 137.202 47.2031C137.437 47.5023 137.683 47.652 137.939 47.652C138.089 47.652 138.199 47.5059 138.271 47.2138C138.349 46.9145 138.402 46.4193 138.431 45.7281C138.516 45.8136 138.623 45.8991 138.752 45.9846C138.88 46.063 138.997 46.1236 139.104 46.1663C139.061 46.7577 138.994 47.2209 138.901 47.5558C138.809 47.8907 138.68 48.1258 138.516 48.2612C138.352 48.3966 138.135 48.4643 137.864 48.4643C137.522 48.4643 137.205 48.3431 136.913 48.1009C136.628 47.8586 136.372 47.5166 136.144 47.0748C135.923 46.6259 135.727 46.0986 135.556 45.493C135.392 44.8873 135.253 44.2211 135.139 43.4943C135.025 42.7604 134.939 41.9873 134.882 41.175C134.825 40.3627 134.79 39.5326 134.776 38.6847ZM137.683 43.0134L138.388 43.3126C138.046 43.9682 137.626 44.5916 137.127 45.183C136.635 45.7673 136.09 46.3017 135.492 46.7862C134.9 47.2708 134.273 47.684 133.611 48.026C133.546 47.9334 133.461 47.8265 133.354 47.7054C133.254 47.5843 133.155 47.481 133.055 47.3955C133.696 47.0891 134.309 46.7114 134.893 46.2625C135.477 45.8065 136.008 45.3006 136.486 44.7448C136.963 44.189 137.362 43.6119 137.683 43.0134ZM140.878 40.32H144.128V47.3099H140.878V46.5832H143.39V41.0361H140.878V40.32ZM140.408 40.32H141.146V48.1543H140.408V40.32ZM140.825 43.2912H143.775V43.9967H140.825V43.2912ZM142.043 38.5778L142.909 38.7274C142.802 39.0623 142.685 39.4008 142.556 39.7428C142.435 40.0848 142.321 40.377 142.214 40.6192L141.562 40.4589C141.627 40.2808 141.687 40.0813 141.744 39.8604C141.808 39.6395 141.865 39.415 141.915 39.187C141.972 38.959 142.015 38.7559 142.043 38.5778ZM145.656 40.2879H148.937V41.0254H145.656V40.2879ZM148.649 40.2879H149.407C149.407 40.2879 149.407 40.3128 149.407 40.3627C149.407 40.4126 149.407 40.4732 149.407 40.5444C149.407 40.6085 149.404 40.6584 149.397 40.694C149.354 41.9196 149.311 42.9563 149.269 43.8043C149.233 44.6522 149.187 45.3469 149.13 45.8884C149.073 46.4228 149.005 46.8397 148.927 47.1389C148.855 47.4382 148.766 47.652 148.659 47.7802C148.538 47.937 148.41 48.0439 148.275 48.1009C148.146 48.165 147.986 48.2077 147.794 48.2291C147.615 48.2434 147.38 48.2469 147.088 48.2398C146.803 48.2398 146.507 48.2291 146.201 48.2077C146.194 48.0937 146.165 47.9619 146.116 47.8123C146.073 47.6627 146.012 47.538 145.934 47.4382C146.29 47.4667 146.611 47.4845 146.896 47.4916C147.188 47.4988 147.398 47.5023 147.526 47.5023C147.633 47.5023 147.719 47.4916 147.783 47.4703C147.854 47.4418 147.922 47.3919 147.986 47.3206C148.071 47.228 148.146 47.0392 148.21 46.7542C148.282 46.462 148.342 46.0488 148.392 45.5144C148.442 44.98 148.488 44.2995 148.531 43.4729C148.574 42.6393 148.613 41.6346 148.649 40.4589V40.2879ZM145.87 38.5564L146.639 38.7274C146.511 39.2618 146.354 39.7856 146.169 40.2986C145.991 40.8045 145.791 41.2819 145.57 41.7308C145.357 42.1797 145.129 42.5751 144.886 42.9172C144.837 42.8744 144.769 42.8245 144.683 42.7675C144.605 42.7034 144.523 42.6464 144.438 42.5965C144.352 42.5395 144.277 42.4932 144.213 42.4576C144.462 42.1369 144.691 41.77 144.897 41.3567C145.104 40.9363 145.289 40.4874 145.453 40.01C145.617 39.5326 145.756 39.0481 145.87 38.5564ZM145.378 43.0561L146.009 42.7034C146.208 42.9528 146.415 43.2271 146.629 43.5264C146.849 43.8256 147.053 44.1142 147.238 44.3921C147.43 44.67 147.583 44.9158 147.697 45.1296L147.013 45.5571C146.906 45.3362 146.76 45.0833 146.575 44.7983C146.397 44.5061 146.201 44.2104 145.987 43.9111C145.781 43.6048 145.578 43.3197 145.378 43.0561ZM154.132 43.847H160.491V44.5845H154.132V43.847ZM154.848 40.3093H159.871V44.1463H159.123V41.0468H155.575V44.1463H154.848V40.3093ZM156.9 38.6526H157.637V42.7248C157.637 43.2948 157.598 43.8541 157.52 44.4028C157.448 44.9443 157.295 45.4609 157.06 45.9526C156.825 46.4371 156.476 46.8896 156.013 47.3099C155.55 47.7232 154.93 48.0902 154.153 48.4108C154.117 48.3538 154.071 48.2861 154.014 48.2077C153.957 48.1365 153.896 48.0652 153.832 47.994C153.768 47.9227 153.708 47.8622 153.651 47.8123C154.377 47.513 154.955 47.1781 155.382 46.8076C155.817 46.4371 156.141 46.0345 156.355 45.5999C156.576 45.1581 156.722 44.6985 156.793 44.2211C156.864 43.7366 156.9 43.2378 156.9 42.7248V38.6526ZM157.755 44.157C157.969 45.012 158.304 45.7602 158.76 46.4015C159.216 47.0356 159.803 47.5059 160.523 47.8123C160.466 47.8622 160.402 47.9263 160.331 48.0047C160.267 48.083 160.202 48.1614 160.138 48.2398C160.081 48.3253 160.035 48.4001 159.999 48.4643C159.244 48.0866 158.628 47.5451 158.15 46.8397C157.673 46.1271 157.317 45.2828 157.082 44.3066L157.755 44.157ZM151.353 39.3794H153.8V46.4015H151.353V45.6747H153.052V40.1062H151.353V39.3794ZM151.385 42.4896H153.512V43.195H151.385V42.4896ZM150.979 39.3794H151.716V47.2779H150.979V39.3794ZM165.782 44.7021H166.54V46.8504H165.782V44.7021ZM161.41 47.5558H171.008V48.1222H161.41V47.5558ZM161.432 40.2986H170.976V40.8116H161.432V40.2986ZM161.41 43.5157H171.019V44.0715H161.41V43.5157ZM162.233 42.4469H170.239V42.9492H162.233V42.4469ZM162.564 39.2512H169.811V41.9018H162.5V41.3995H169.009V39.7535H162.564V39.2512ZM165.75 38.5885H166.562V43.7295H165.75V38.5885ZM163.409 46.0167V46.5832H169.02V46.0167H163.409ZM163.409 45.012V45.5571H169.02V45.012H163.409ZM162.629 44.5417H169.832V47.0534H162.629V44.5417ZM172.237 40.8544H181.557V41.6667H172.237V40.8544ZM174.364 45.6212H179.345V46.4335H174.364V45.6212ZM176.459 38.6099H177.303V48.4322H176.459V38.6099ZM176.202 41.1216L176.929 41.3567C176.609 42.112 176.217 42.8352 175.754 43.5264C175.29 44.2104 174.777 44.8303 174.214 45.3861C173.652 45.9348 173.064 46.3872 172.451 46.7435C172.408 46.6794 172.351 46.6081 172.28 46.5297C172.209 46.4442 172.137 46.3623 172.066 46.2839C172.002 46.2055 171.938 46.1378 171.874 46.0808C172.323 45.8457 172.757 45.5535 173.178 45.2044C173.605 44.8553 174.008 44.4634 174.385 44.0287C174.77 43.5869 175.116 43.1202 175.422 42.6286C175.729 42.1369 175.989 41.6346 176.202 41.1216ZM177.56 41.1536C177.845 41.8305 178.212 42.4861 178.661 43.1202C179.11 43.7473 179.612 44.3137 180.168 44.8196C180.731 45.3184 181.318 45.7174 181.931 46.0167C181.867 46.0737 181.796 46.1414 181.717 46.2198C181.646 46.2981 181.575 46.3836 181.504 46.4763C181.432 46.5618 181.372 46.6437 181.322 46.7221C180.702 46.373 180.107 45.9276 179.537 45.3861C178.974 44.8374 178.465 44.2211 178.009 43.5371C177.553 42.853 177.168 42.1405 176.854 41.3995L177.56 41.1536Z" fill="#17120D"/>
<path d="M49.1783 62.8662V58.1059H49.9466V58.8213H50.0173C50.2557 58.3178 50.7017 58.022 51.4039 58.022C52.4725 58.022 53.0687 58.6535 53.0687 59.7839V62.8662H52.3003V59.9694C52.3003 59.1127 51.947 58.702 51.1875 58.702C50.428 58.702 49.9466 59.2143 49.9466 60.0489V62.8662H49.1783ZM60.8549 56.9516H64.2282V57.4581H60.8549V56.9516ZM60.8549 58.2177H64.2282V58.7332H60.8549V58.2177ZM59.7968 59.5019H64.9789V60.1079H59.7968V59.5019ZM60.5474 55.6131H64.5809V56.201H61.1986V59.8185H60.5474V55.6131ZM59.7968 62.821C60.1887 62.7667 60.662 62.6944 61.2167 62.6039C61.7774 62.5075 62.3502 62.411 62.935 62.3145L62.9621 62.9024C62.4195 63.0049 61.8829 63.1044 61.3523 63.2008C60.8218 63.3033 60.3455 63.3907 59.9234 63.4631L59.7968 62.821ZM62.5461 59.7823C62.6787 60.2887 62.8596 60.756 63.0887 61.1841C63.3178 61.6061 63.6012 61.9769 63.9388 62.2965C64.2765 62.61 64.6654 62.8511 65.1055 63.02C65.0512 63.0622 64.9939 63.1164 64.9336 63.1827C64.8794 63.2551 64.8281 63.3274 64.7799 63.3998C64.7317 63.4721 64.6895 63.5385 64.6533 63.5988C64.189 63.3877 63.7821 63.1044 63.4324 62.7486C63.0887 62.3869 62.7963 61.9649 62.5551 61.4825C62.32 61.0002 62.1301 60.4696 61.9854 59.8908L62.5461 59.7823ZM64.382 60.3521L64.9427 60.6867C64.6895 60.8917 64.4121 61.0997 64.1107 61.3107C63.8152 61.5157 63.5409 61.6875 63.2877 61.8262L62.8717 61.5549C63.0345 61.4463 63.2063 61.3227 63.3872 61.1841C63.5741 61.0454 63.7549 60.9037 63.9298 60.759C64.1107 60.6083 64.2614 60.4726 64.382 60.3521ZM60.5565 59.7099H61.2076V62.8391L60.5565 62.9657V59.7099ZM57.0837 59.6828H59.4079V60.2978H57.0837V59.6828ZM59.1095 59.6828H59.7878C59.7878 59.6828 59.7848 59.7009 59.7787 59.7371C59.7787 59.7733 59.7787 59.8155 59.7787 59.8637C59.7787 59.9119 59.7757 59.9511 59.7697 59.9813C59.7214 60.7108 59.6702 61.3047 59.6159 61.7629C59.5617 62.2151 59.5014 62.5617 59.4351 62.8029C59.3687 63.038 59.2904 63.2069 59.1999 63.3094C59.1215 63.3998 59.0341 63.4631 58.9377 63.4993C58.8472 63.5415 58.7357 63.5656 58.603 63.5716C58.4885 63.5837 58.3317 63.5897 58.1328 63.5897C57.9398 63.5897 57.7379 63.5837 57.5268 63.5716C57.5208 63.4752 57.4997 63.3666 57.4635 63.246C57.4334 63.1255 57.3912 63.023 57.3369 62.9386C57.5479 62.9566 57.7409 62.9687 57.9157 62.9747C58.0966 62.9808 58.2292 62.9838 58.3136 62.9838C58.392 62.9838 58.4553 62.9747 58.5036 62.9566C58.5518 62.9446 58.594 62.9175 58.6302 62.8753C58.7025 62.8089 58.7658 62.6672 58.8201 62.4502C58.8743 62.2271 58.9256 61.9015 58.9738 61.4735C59.0281 61.0454 59.0733 60.4877 59.1095 59.8004V59.6828ZM57.1108 57.8198H57.7348C57.7047 58.1273 57.6655 58.4559 57.6173 58.8056C57.5751 59.1553 57.5298 59.4959 57.4816 59.8275C57.4394 60.1531 57.3972 60.4395 57.355 60.6867L56.7219 60.6053C56.7702 60.3641 56.8184 60.0838 56.8666 59.7642C56.9149 59.4386 56.9601 59.107 57.0023 58.7694C57.0505 58.4257 57.0867 58.1092 57.1108 57.8198ZM57.2103 57.8198H59.019V56.3728H56.8395V55.7397H59.6431V58.4438H57.2103V57.8198Z" fill="#6F6961"/>
<g clip-path="url(#clip1_7944_27614)">
<path d="M268.92 47.228C269.242 46.9071 269.762 46.9071 270.083 47.228L273.92 51.0649C274.24 51.386 274.24 51.9061 273.92 52.227L270.083 56.064C269.762 56.3846 269.242 56.3846 268.92 56.064C268.599 55.7429 268.599 55.2219 268.92 54.9009L272.176 51.645L268.92 48.3901C268.6 48.0691 268.6 47.5491 268.92 47.228Z" fill="#29241D"/>
</g>
<path d="M15.5771 80.5869H284.423C287.828 80.587 290.589 83.3475 290.589 86.7529V114.042C290.589 117.447 287.828 120.208 284.423 120.208H15.5771C12.1718 120.208 9.41131 117.447 9.41113 114.042V86.7529C9.4112 83.3475 12.1718 80.587 15.5771 80.5869Z" fill="white" fill-opacity="0.9"/>
<path d="M15.5771 80.5869H284.423C287.828 80.587 290.589 83.3475 290.589 86.7529V114.042C290.589 117.447 287.828 120.208 284.423 120.208H15.5771C12.1718 120.208 9.41131 117.447 9.41113 114.042V86.7529C9.4112 83.3475 12.1718 80.587 15.5771 80.5869Z" stroke="#B1ABA3" stroke-width="0.822158"/>
<g clip-path="url(#clip2_7944_27614)">
<path d="M32.1563 91.4883C33.3442 91.4868 34.5216 91.7202 35.6191 92.1748C36.7161 92.6292 37.713 93.2963 38.5518 94.1367L38.8594 94.458C39.5568 95.226 40.1168 96.1108 40.5147 97.0713C40.9689 98.1682 41.2024 99.344 41.2012 100.531L41.1904 100.977C41.1405 102.013 40.9124 103.034 40.5147 103.994C40.0603 105.091 39.3931 106.087 38.5527 106.926C37.7137 107.767 36.7168 108.435 35.6191 108.89C34.5216 109.344 33.3443 109.578 32.1563 109.576C30.969 109.577 29.7932 109.344 28.6963 108.89C27.5986 108.435 26.6008 107.768 25.7617 106.927C24.9215 106.088 24.2542 105.091 23.7998 103.994C23.3452 102.897 23.1118 101.719 23.1133 100.531C23.1121 99.344 23.3456 98.1682 23.7998 97.0713C24.2545 95.9737 24.9216 94.9758 25.7627 94.1367C26.6015 93.2962 27.5992 92.6292 28.6963 92.1748C29.7932 91.7205 30.969 91.4871 32.1563 91.4883ZM36.8496 97.4844C36.5285 97.1633 36.0076 97.1633 35.6865 97.4844L31.335 101.836L29.4502 99.9512C29.1291 99.6301 28.6082 99.6301 28.2871 99.9512C27.9664 100.272 27.9665 100.792 28.2871 101.113L30.7539 103.58C31.075 103.901 31.5959 103.901 31.917 103.58L36.8496 98.6475C37.1707 98.3264 37.1707 97.8055 36.8496 97.4844Z" fill="#8B6A9C"/>
</g>
<path d="M51.3802 96.7529V90.0677H48.9535V89.2222H54.7463V90.0677H52.3196V96.7529H51.3802ZM56.4581 90.0416C56.1136 90.0416 55.8318 89.7598 55.8318 89.4153C55.8318 89.0709 56.1136 88.7891 56.4581 88.7891C56.8025 88.7891 57.0843 89.0709 57.0843 89.4153C57.0843 89.7598 56.8025 90.0416 56.4581 90.0416ZM55.9988 96.7529V91.1271H56.9069V96.7529H55.9988ZM58.6186 96.7529V91.1271H59.5267V91.9725H59.6102C59.892 91.3776 60.4191 91.0279 61.2489 91.0279C62.5118 91.0279 63.2164 91.7742 63.2164 93.1102V96.7529H62.3083V93.3294C62.3083 92.317 61.8908 91.8316 60.9932 91.8316C60.0955 91.8316 59.5267 92.437 59.5267 93.4234V96.7529H58.6186ZM66.1493 96.7529V90.0677H63.7226V89.2222H69.5154V90.0677H67.0887V96.7529H66.1493ZM71.2272 90.0416C70.8827 90.0416 70.6009 89.7598 70.6009 89.4153C70.6009 89.0709 70.8827 88.7891 71.2272 88.7891C71.5716 88.7891 71.8534 89.0709 71.8534 89.4153C71.8534 89.7598 71.5716 90.0416 71.2272 90.0416ZM70.7679 96.7529V91.1271H71.676V96.7529H70.7679ZM73.3878 96.7529V91.1271H74.2958V91.9725H74.3793C74.6611 91.3776 75.1882 91.0279 76.018 91.0279C77.281 91.0279 77.9855 91.7742 77.9855 93.1102V96.7529H77.0774V93.3294C77.0774 92.317 76.6599 91.8316 75.7623 91.8316C74.8647 91.8316 74.2958 92.437 74.2958 93.4234V96.7529H73.3878ZM81.6282 96.7947C80.4696 96.7947 79.9843 96.3667 79.9843 95.2917V91.8786H79.0971V91.1271H79.9843V89.6711H80.9237V91.1271H82.1553V91.8786H80.9237V95.062C80.9237 95.7248 81.1533 95.991 81.7378 95.991C81.8996 95.991 81.9883 95.9858 82.1553 95.9701V96.7425C81.9779 96.7738 81.8056 96.7947 81.6282 96.7947ZM91.316 92.8625H95.5271V97.5545H94.7576V93.5893H92.0642V97.5973H91.316V92.8625ZM92.8765 87.7963H93.6567V93.0869H92.8765V87.7963ZM93.3361 90.1157H95.944V90.8638H93.3361V90.1157ZM91.7008 96.3575H95.121V97.1056H91.7008V96.3575ZM87.137 88.7476V91.3341H90.0762V88.7476H87.137ZM86.4957 88.1597H90.7282V91.9219H86.4957V88.1597ZM87.2866 89.282L87.6821 89.1751C87.7747 89.4316 87.8531 89.7131 87.9172 90.0195C87.9885 90.3187 88.0312 90.5788 88.0455 90.7997L87.618 90.9173C87.6108 90.6964 87.5752 90.4327 87.5111 90.1263C87.4541 89.8199 87.3793 89.5385 87.2866 89.282ZM87.6393 95.3955L88.1738 95.3314C88.2521 95.6236 88.3163 95.9442 88.3661 96.2933C88.4231 96.6354 88.4516 96.9346 88.4516 97.1911L87.8959 97.266C87.903 97.0094 87.8816 96.7102 87.8317 96.3682C87.7819 96.019 87.7177 95.6948 87.6393 95.3955ZM88.6654 95.3314L89.1784 95.2245C89.3067 95.4953 89.4207 95.791 89.5204 96.1116C89.6273 96.4323 89.6986 96.7102 89.7342 96.9453L89.1891 97.0736C89.1606 96.8384 89.0965 96.557 88.9967 96.2292C88.9041 95.9014 88.7937 95.6022 88.6654 95.3314ZM89.6915 95.1925L90.1831 94.9894C90.3755 95.2388 90.5572 95.5131 90.7282 95.8124C90.9063 96.1116 91.0346 96.3717 91.113 96.5926L90.5786 96.8277C90.5002 96.5997 90.3755 96.3325 90.2045 96.0261C90.0406 95.7198 89.8696 95.4419 89.6915 95.1925ZM86.7309 95.3528L87.2973 95.5131C87.2475 95.905 87.1691 96.2933 87.0622 96.6781C86.9624 97.0629 86.7986 97.3728 86.5705 97.608L86.0148 97.3087C86.2285 97.0878 86.3888 96.8028 86.4957 96.4537C86.6097 96.0974 86.6881 95.7304 86.7309 95.3528ZM89.467 89.143L89.9373 89.314C89.8447 89.5919 89.7485 89.8876 89.6487 90.2012C89.5489 90.5147 89.4492 90.7747 89.3494 90.9814L89.0074 90.8531C89.0573 90.6964 89.1107 90.5182 89.1677 90.3187C89.2319 90.1121 89.2889 89.9055 89.3387 89.6988C89.3958 89.4922 89.4385 89.3069 89.467 89.143ZM86.1965 94.2306C86.5884 94.2092 87.0408 94.1878 87.5538 94.1664C88.074 94.1379 88.6262 94.1094 89.2105 94.0809C89.7948 94.0453 90.3791 94.0132 90.9633 93.9847L90.942 94.626C90.3791 94.6616 89.8126 94.7008 89.2426 94.7436C88.6725 94.7792 88.131 94.8148 87.618 94.8505C87.1049 94.879 86.6418 94.9075 86.2285 94.936L86.1965 94.2306ZM86.4209 92.6594H90.803V93.3007H86.4209V92.6594ZM88.2913 88.4483H88.8364V91.644H88.9219V94.4122H88.2058V91.644H88.2913V88.4483ZM102.004 92.8625H106.215V97.5545H105.446V93.5893H102.752V97.5973H102.004V92.8625ZM103.565 87.7963H104.345V93.0869H103.565V87.7963ZM104.024 90.1157H106.632V90.8638H104.024V90.1157ZM102.389 96.3575H105.809V97.1056H102.389V96.3575ZM97.8251 88.7476V91.3341H100.764V88.7476H97.8251ZM97.1838 88.1597H101.416V91.9219H97.1838V88.1597ZM97.9747 89.282L98.3701 89.1751C98.4628 89.4316 98.5412 89.7131 98.6053 90.0195C98.6765 90.3187 98.7193 90.5788 98.7335 90.7997L98.306 90.9173C98.2989 90.6964 98.2633 90.4327 98.1991 90.1263C98.1421 89.8199 98.0673 89.5385 97.9747 89.282ZM98.3274 95.3955L98.8618 95.3314C98.9402 95.6236 99.0043 95.9442 99.0542 96.2933C99.1112 96.6354 99.1397 96.9346 99.1397 97.1911L98.5839 97.266C98.591 97.0094 98.5697 96.7102 98.5198 96.3682C98.4699 96.019 98.4058 95.6948 98.3274 95.3955ZM99.3534 95.3314L99.8665 95.2245C99.9947 95.4953 100.109 95.791 100.208 96.1116C100.315 96.4323 100.387 96.7102 100.422 96.9453L99.8772 97.0736C99.8487 96.8384 99.7845 96.557 99.6848 96.2292C99.5921 95.9014 99.4817 95.6022 99.3534 95.3314ZM100.38 95.1925L100.871 94.9894C101.064 95.2388 101.245 95.5131 101.416 95.8124C101.594 96.1116 101.723 96.3717 101.801 96.5926L101.267 96.8277C101.188 96.5997 101.064 96.3325 100.893 96.0261C100.729 95.7198 100.558 95.4419 100.38 95.1925ZM97.4189 95.3528L97.9854 95.5131C97.9355 95.905 97.8571 96.2933 97.7502 96.6781C97.6505 97.0629 97.4866 97.3728 97.2586 97.608L96.7028 97.3087C96.9166 97.0878 97.0769 96.8028 97.1838 96.4537C97.2978 96.0974 97.3762 95.7304 97.4189 95.3528ZM100.155 89.143L100.625 89.314C100.533 89.5919 100.437 89.8876 100.337 90.2012C100.237 90.5147 100.137 90.7747 100.037 90.9814L99.6955 90.8531C99.7453 90.6964 99.7988 90.5182 99.8558 90.3187C99.9199 90.1121 99.9769 89.9055 100.027 89.6988C100.084 89.4922 100.127 89.3069 100.155 89.143ZM96.8845 94.2306C97.2764 94.2092 97.7289 94.1878 98.2419 94.1664C98.762 94.1379 99.3143 94.1094 99.8985 94.0809C100.483 94.0453 101.067 94.0132 101.651 93.9847L101.63 94.626C101.067 94.6616 100.501 94.7008 99.9306 94.7436C99.3606 94.7792 98.819 94.8148 98.306 94.8505C97.793 94.879 97.3298 94.9075 96.9166 94.936L96.8845 94.2306ZM97.109 92.6594H101.491V93.3007H97.109V92.6594ZM98.9794 88.4483H99.5245V91.644H99.61V94.4122H98.8939V91.644H98.9794V88.4483ZM108.545 91.5051H111.923V92.2853H108.545V91.5051ZM108.545 94.8825H111.976V95.6521H108.545V94.8825ZM116.091 88.5231H116.903V94.9039C116.903 95.1319 116.871 95.3207 116.807 95.4704C116.75 95.6129 116.636 95.7198 116.465 95.791C116.294 95.8623 116.066 95.9086 115.781 95.9299C115.503 95.9513 115.165 95.962 114.766 95.962C114.751 95.8765 114.726 95.7839 114.691 95.6841C114.662 95.5772 114.627 95.4739 114.584 95.3742C114.541 95.2673 114.498 95.1747 114.456 95.0963C114.776 95.1034 115.068 95.1105 115.332 95.1177C115.603 95.1177 115.785 95.1177 115.877 95.1177C115.963 95.1105 116.02 95.0927 116.048 95.0642C116.077 95.0357 116.091 94.9787 116.091 94.8932V88.5231ZM108.15 88.7369L108.951 89.0362V96.5712H108.15V88.7369ZM111.42 87.7963L112.104 88.459C111.784 88.6086 111.427 88.7583 111.035 88.9079C110.651 89.0504 110.252 89.1858 109.838 89.314C109.425 89.4423 109.023 89.5634 108.631 89.6774C108.609 89.5777 108.57 89.4637 108.513 89.3354C108.463 89.2072 108.41 89.0967 108.353 89.0041C108.716 88.8972 109.087 88.7761 109.464 88.6407C109.849 88.5053 110.209 88.3628 110.544 88.2132C110.886 88.0635 111.178 87.9246 111.42 87.7963ZM112.639 88.5231H116.54V89.3247H113.451V97.5652H112.639V88.5231ZM121.51 94.1435V93.2981H125.017V94.1435H121.51ZM136.315 88.4804L136.924 88.0529C137.13 88.231 137.344 88.4269 137.565 88.6407C137.786 88.8545 137.993 89.0682 138.185 89.282C138.377 89.4886 138.531 89.6774 138.645 89.8485L137.993 90.3187C137.886 90.1477 137.74 89.9553 137.554 89.7416C137.369 89.5207 137.166 89.2998 136.945 89.0789C136.731 88.858 136.521 88.6585 136.315 88.4804ZM129.389 90.9386H138.901V91.6975H129.389V90.9386ZM129.228 94.0702C129.649 93.9919 130.141 93.8957 130.703 93.7817C131.273 93.6676 131.872 93.5465 132.499 93.4183C133.133 93.2829 133.764 93.1475 134.391 93.0121L134.455 93.7282C133.871 93.8636 133.279 94.0025 132.681 94.145C132.089 94.2804 131.516 94.4122 130.96 94.5405C130.411 94.6616 129.912 94.7756 129.464 94.8825L129.228 94.0702ZM131.676 88.8651H132.478V96.5712C132.478 96.8349 132.442 97.0344 132.371 97.1698C132.307 97.3051 132.185 97.4049 132.007 97.469C131.843 97.5332 131.612 97.5723 131.313 97.5866C131.02 97.608 130.654 97.6187 130.212 97.6187C130.198 97.5403 130.176 97.4512 130.148 97.3515C130.119 97.2588 130.084 97.1626 130.041 97.0629C129.998 96.9631 129.959 96.8776 129.923 96.8064C130.265 96.8135 130.579 96.8171 130.864 96.8171C131.149 96.8242 131.338 96.8242 131.43 96.8171C131.523 96.8099 131.587 96.7886 131.623 96.7529C131.658 96.7244 131.676 96.6639 131.676 96.5712V88.8651ZM133.707 87.9032L134.273 88.5766C133.86 88.7191 133.393 88.8509 132.873 88.972C132.36 89.086 131.829 89.1929 131.281 89.2927C130.739 89.3924 130.212 89.4779 129.699 89.5492C129.677 89.4566 129.642 89.3461 129.592 89.2179C129.549 89.0825 129.503 88.9685 129.453 88.8758C129.952 88.7975 130.465 88.7084 130.992 88.6086C131.519 88.5018 132.018 88.3878 132.488 88.2666C132.959 88.1455 133.365 88.0244 133.707 87.9032ZM134.776 87.8605H135.62C135.613 88.8366 135.645 89.7736 135.716 90.6714C135.794 91.5621 135.905 92.3851 136.047 93.1404C136.19 93.8885 136.357 94.5405 136.55 95.0963C136.749 95.6449 136.967 96.0725 137.202 96.3788C137.437 96.6781 137.683 96.8277 137.939 96.8277C138.089 96.8277 138.199 96.6817 138.271 96.3895C138.349 96.0903 138.402 95.5951 138.431 94.9039C138.516 94.9894 138.623 95.0749 138.752 95.1604C138.88 95.2388 138.997 95.2994 139.104 95.3421C139.061 95.9335 138.994 96.3967 138.901 96.7316C138.809 97.0664 138.68 97.3016 138.516 97.437C138.352 97.5723 138.135 97.64 137.864 97.64C137.522 97.64 137.205 97.5189 136.913 97.2766C136.628 97.0344 136.372 96.6924 136.144 96.2506C135.923 95.8017 135.727 95.2744 135.556 94.6688C135.392 94.0631 135.253 93.3969 135.139 92.6701C135.025 91.9362 134.939 91.1631 134.882 90.3508C134.825 89.5385 134.79 88.7084 134.776 87.8605ZM137.683 92.1891L138.388 92.4884C138.046 93.1439 137.626 93.7674 137.127 94.3588C136.635 94.9431 136.09 95.4775 135.492 95.962C134.9 96.4465 134.273 96.8598 133.611 97.2018C133.546 97.1092 133.461 97.0023 133.354 96.8812C133.254 96.7601 133.155 96.6567 133.055 96.5712C133.696 96.2648 134.309 95.8872 134.893 95.4383C135.477 94.9823 136.008 94.4764 136.486 93.9206C136.963 93.3648 137.362 92.7877 137.683 92.1891ZM140.878 89.4957H144.128V96.4857H140.878V95.7589H143.39V90.2118H140.878V89.4957ZM140.408 89.4957H141.146V97.3301H140.408V89.4957ZM140.825 92.467H143.775V93.1724H140.825V92.467ZM142.043 87.7536L142.909 87.9032C142.802 88.2381 142.685 88.5766 142.556 88.9186C142.435 89.2606 142.321 89.5527 142.214 89.795L141.562 89.6347C141.627 89.4566 141.687 89.257 141.744 89.0362C141.808 88.8153 141.865 88.5908 141.915 88.3628C141.972 88.1348 142.015 87.9317 142.043 87.7536ZM145.656 89.4637H148.937V90.2012H145.656V89.4637ZM148.649 89.4637H149.407C149.407 89.4637 149.407 89.4886 149.407 89.5385C149.407 89.5884 149.407 89.6489 149.407 89.7202C149.407 89.7843 149.404 89.8342 149.397 89.8698C149.354 91.0954 149.311 92.1321 149.269 92.98C149.233 93.828 149.187 94.5227 149.13 95.0642C149.073 95.5986 149.005 96.0155 148.927 96.3147C148.855 96.614 148.766 96.8277 148.659 96.956C148.538 97.1128 148.41 97.2196 148.275 97.2766C148.146 97.3408 147.986 97.3835 147.794 97.4049C147.615 97.4192 147.38 97.4227 147.088 97.4156C146.803 97.4156 146.507 97.4049 146.201 97.3835C146.194 97.2695 146.165 97.1377 146.116 96.9881C146.073 96.8384 146.012 96.7137 145.934 96.614C146.29 96.6425 146.611 96.6603 146.896 96.6674C147.188 96.6746 147.398 96.6781 147.526 96.6781C147.633 96.6781 147.719 96.6674 147.783 96.646C147.854 96.6175 147.922 96.5677 147.986 96.4964C148.071 96.4038 148.146 96.215 148.21 95.9299C148.282 95.6378 148.342 95.2245 148.392 94.6901C148.442 94.1557 148.488 93.4753 148.531 92.6487C148.574 91.8151 148.613 90.8104 148.649 89.6347V89.4637ZM145.87 87.7322L146.639 87.9032C146.511 88.4376 146.354 88.9613 146.169 89.4744C145.991 89.9803 145.791 90.4577 145.57 90.9066C145.357 91.3555 145.129 91.7509 144.886 92.0929C144.837 92.0502 144.769 92.0003 144.683 91.9433C144.605 91.8792 144.523 91.8222 144.438 91.7723C144.352 91.7153 144.277 91.669 144.213 91.6334C144.462 91.3127 144.691 90.9458 144.897 90.5325C145.104 90.1121 145.289 89.6632 145.453 89.1858C145.617 88.7084 145.756 88.2239 145.87 87.7322ZM145.378 92.2319L146.009 91.8792C146.208 92.1286 146.415 92.4029 146.629 92.7022C146.849 93.0014 147.053 93.29 147.238 93.5679C147.43 93.8458 147.583 94.0916 147.697 94.3054L147.013 94.7329C146.906 94.512 146.76 94.2591 146.575 93.974C146.397 93.6819 146.201 93.3862 145.987 93.0869C145.781 92.7805 145.578 92.4955 145.378 92.2319ZM154.132 93.0228H160.491V93.7603H154.132V93.0228ZM154.848 89.4851H159.871V93.3221H159.123V90.2225H155.575V93.3221H154.848V89.4851ZM156.9 87.8284H157.637V91.9006C157.637 92.4706 157.598 93.0299 157.52 93.5786C157.448 94.1201 157.295 94.6367 157.06 95.1283C156.825 95.6129 156.476 96.0653 156.013 96.4857C155.55 96.899 154.93 97.266 154.153 97.5866C154.117 97.5296 154.071 97.4619 154.014 97.3835C153.957 97.3123 153.896 97.241 153.832 97.1698C153.768 97.0985 153.708 97.0379 153.651 96.9881C154.377 96.6888 154.955 96.3539 155.382 95.9834C155.817 95.6129 156.141 95.2103 156.355 94.7756C156.576 94.3339 156.722 93.8743 156.793 93.3969C156.864 92.9124 156.9 92.4136 156.9 91.9006V87.8284ZM157.755 93.3328C157.969 94.1878 158.304 94.936 158.76 95.5772C159.216 96.2114 159.803 96.6817 160.523 96.9881C160.466 97.0379 160.402 97.1021 160.331 97.1805C160.267 97.2588 160.202 97.3372 160.138 97.4156C160.081 97.5011 160.035 97.5759 159.999 97.64C159.244 97.2624 158.628 96.7209 158.15 96.0155C157.673 95.3029 157.317 94.4586 157.082 93.4824L157.755 93.3328ZM151.353 88.5552H153.8V95.5772H151.353V94.8505H153.052V89.282H151.353V88.5552ZM151.385 91.6654H153.512V92.3708H151.385V91.6654ZM150.979 88.5552H151.716V96.4537H150.979V88.5552ZM165.782 93.8778H166.54V96.0261H165.782V93.8778ZM161.41 96.7316H171.008V97.298H161.41V96.7316ZM161.432 89.4744H170.976V89.9874H161.432V89.4744ZM161.41 92.6915H171.019V93.2472H161.41V92.6915ZM162.233 91.6227H170.239V92.125H162.233V91.6227ZM162.564 88.4269H169.811V91.0776H162.5V90.5752H169.009V88.9293H162.564V88.4269ZM165.75 87.7643H166.562V92.9052H165.75V87.7643ZM163.409 95.1925V95.7589H169.02V95.1925H163.409ZM163.409 94.1878V94.7329H169.02V94.1878H163.409ZM162.629 93.7175H169.832V96.2292H162.629V93.7175ZM172.237 90.0301H181.557V90.8424H172.237V90.0301ZM174.364 94.797H179.345V95.6093H174.364V94.797ZM176.459 87.7857H177.303V97.608H176.459V87.7857ZM176.202 90.2973L176.929 90.5325C176.609 91.2878 176.217 92.011 175.754 92.7022C175.29 93.3862 174.777 94.0061 174.214 94.5619C173.652 95.1105 173.064 95.563 172.451 95.9193C172.408 95.8551 172.351 95.7839 172.28 95.7055C172.209 95.62 172.137 95.5381 172.066 95.4597C172.002 95.3813 171.938 95.3136 171.874 95.2566C172.323 95.0215 172.757 94.7293 173.178 94.3802C173.605 94.031 174.008 93.6391 174.385 93.2045C174.77 92.7627 175.116 92.296 175.422 91.8044C175.729 91.3127 175.989 90.8104 176.202 90.2973ZM177.56 90.3294C177.845 91.0063 178.212 91.6619 178.661 92.296C179.11 92.923 179.612 93.4895 180.168 93.9954C180.731 94.4942 181.318 94.8932 181.931 95.1925C181.867 95.2495 181.796 95.3172 181.717 95.3955C181.646 95.4739 181.575 95.5594 181.504 95.6521C181.432 95.7376 181.372 95.8195 181.322 95.8979C180.702 95.5487 180.107 95.1034 179.537 94.5619C178.974 94.0132 178.465 93.3969 178.009 92.7128C177.553 92.0288 177.168 91.3163 176.854 90.5752L177.56 90.3294Z" fill="#17120D"/>
<path d="M49.1783 112.042V107.282H49.9466V107.997H50.0173C50.2557 107.494 50.7017 107.198 51.4039 107.198C52.4725 107.198 53.0687 107.829 53.0687 108.96V112.042H52.3003V109.145C52.3003 108.288 51.947 107.878 51.1875 107.878C50.428 107.878 49.9466 108.39 49.9466 109.225V112.042H49.1783ZM60.8549 106.127H64.2282V106.634H60.8549V106.127ZM60.8549 107.394H64.2282V107.909H60.8549V107.394ZM59.7968 108.678H64.9789V109.284H59.7968V108.678ZM60.5474 104.789H64.5809V105.377H61.1986V108.994H60.5474V104.789ZM59.7968 111.997C60.1887 111.943 60.662 111.87 61.2167 111.78C61.7774 111.683 62.3502 111.587 62.935 111.49L62.9621 112.078C62.4195 112.181 61.8829 112.28 61.3523 112.377C60.8218 112.479 60.3455 112.567 59.9234 112.639L59.7968 111.997ZM62.5461 108.958C62.6787 109.465 62.8596 109.932 63.0887 110.36C63.3178 110.782 63.6012 111.153 63.9388 111.472C64.2765 111.786 64.6654 112.027 65.1055 112.196C65.0512 112.238 64.9939 112.292 64.9336 112.359C64.8794 112.431 64.8281 112.503 64.7799 112.576C64.7317 112.648 64.6895 112.714 64.6533 112.775C64.189 112.564 63.7821 112.28 63.4324 111.924C63.0887 111.563 62.7963 111.141 62.5551 110.658C62.32 110.176 62.1301 109.645 61.9854 109.067L62.5461 108.958ZM64.382 109.528L64.9427 109.862C64.6895 110.067 64.4121 110.275 64.1107 110.486C63.8152 110.691 63.5409 110.863 63.2877 111.002L62.8717 110.731C63.0345 110.622 63.2063 110.499 63.3872 110.36C63.5741 110.221 63.7549 110.08 63.9298 109.935C64.1107 109.784 64.2614 109.648 64.382 109.528ZM60.5565 108.886H61.2076V112.015L60.5565 112.141V108.886ZM57.0837 108.859H59.4079V109.474H57.0837V108.859ZM59.1095 108.859H59.7878C59.7878 108.859 59.7848 108.877 59.7787 108.913C59.7787 108.949 59.7787 108.991 59.7787 109.039C59.7787 109.088 59.7757 109.127 59.7697 109.157C59.7214 109.887 59.6702 110.48 59.6159 110.939C59.5617 111.391 59.5014 111.738 59.4351 111.979C59.3687 112.214 59.2904 112.383 59.1999 112.485C59.1215 112.576 59.0341 112.639 58.9377 112.675C58.8472 112.717 58.7357 112.741 58.603 112.747C58.4885 112.759 58.3317 112.765 58.1328 112.765C57.9398 112.765 57.7379 112.759 57.5268 112.747C57.5208 112.651 57.4997 112.542 57.4635 112.422C57.4334 112.301 57.3912 112.199 57.3369 112.114C57.5479 112.132 57.7409 112.144 57.9157 112.151C58.0966 112.157 58.2292 112.16 58.3136 112.16C58.392 112.16 58.4553 112.151 58.5036 112.132C58.5518 112.12 58.594 112.093 58.6302 112.051C58.7025 111.985 58.7658 111.843 58.8201 111.626C58.8743 111.403 58.9256 111.077 58.9738 110.649C59.0281 110.221 59.0733 109.663 59.1095 108.976V108.859ZM57.1108 106.996H57.7348C57.7047 107.303 57.6655 107.632 57.6173 107.981C57.5751 108.331 57.5298 108.672 57.4816 109.003C57.4394 109.329 57.3972 109.615 57.355 109.862L56.7219 109.781C56.7702 109.54 56.8184 109.26 56.8666 108.94C56.9149 108.614 56.9601 108.283 57.0023 107.945C57.0505 107.602 57.0867 107.285 57.1108 106.996ZM57.2103 106.996H59.019V105.549H56.8395V104.916H59.6431V107.62H57.2103V106.996Z" fill="#6F6961"/>
<g clip-path="url(#clip3_7944_27614)">
<path d="M268.92 96.4038C269.242 96.0828 269.762 96.0828 270.083 96.4038L273.92 100.241C274.24 100.562 274.24 101.082 273.92 101.403L270.083 105.24C269.762 105.56 269.242 105.56 268.92 105.24C268.599 104.919 268.599 104.398 268.92 104.077L272.176 100.821L268.92 97.5659C268.6 97.2449 268.6 96.7249 268.92 96.4038Z" fill="#29241D"/>
</g>
<path d="M15.5771 129.587H284.423C287.828 129.587 290.589 132.348 290.589 135.753V163.042C290.589 166.447 287.828 169.208 284.423 169.208H15.5771C12.1718 169.208 9.41131 166.447 9.41113 163.042V135.753C9.4112 132.348 12.1718 129.587 15.5771 129.587Z" fill="white" fill-opacity="0.9"/>
<path d="M15.5771 129.587H284.423C287.828 129.587 290.589 132.348 290.589 135.753V163.042C290.589 166.447 287.828 169.208 284.423 169.208H15.5771C12.1718 169.208 9.41131 166.447 9.41113 163.042V135.753C9.4112 132.348 12.1718 129.587 15.5771 129.587Z" stroke="#E3DED9" stroke-width="0.822158"/>
<g clip-path="url(#clip4_7944_27614)">
<path d="M32.1572 140.693C37.0382 140.694 40.9951 144.651 40.9951 149.532C40.9949 154.413 37.0381 158.37 32.1572 158.37C27.2762 158.37 23.3185 154.413 23.3184 149.532C23.3184 144.651 27.2761 140.693 32.1572 140.693ZM32.1572 143.982C31.9937 143.982 31.8363 144.047 31.7207 144.163C31.6053 144.279 31.5401 144.435 31.54 144.599V149.532C31.5402 149.872 31.817 150.148 32.1572 150.148H37.0898C37.2534 150.148 37.4107 150.083 37.5264 149.968C37.6417 149.852 37.706 149.695 37.7061 149.532C37.7061 149.369 37.6419 149.211 37.5264 149.096C37.4107 148.98 37.2534 148.915 37.0898 148.915H32.7734V144.599C32.7734 144.435 32.7083 144.279 32.5928 144.163C32.4772 144.048 32.3207 143.983 32.1572 143.982Z" fill="#8B6A9C"/>
</g>
<path d="M51.3802 145.753V139.068H48.9535V138.222H54.7463V139.068H52.3196V145.753H51.3802ZM56.4581 139.042C56.1136 139.042 55.8318 138.76 55.8318 138.415C55.8318 138.071 56.1136 137.789 56.4581 137.789C56.8025 137.789 57.0843 138.071 57.0843 138.415C57.0843 138.76 56.8025 139.042 56.4581 139.042ZM55.9988 145.753V140.127H56.9069V145.753H55.9988ZM58.6186 145.753V140.127H59.5267V140.973H59.6102C59.892 140.378 60.4191 140.028 61.2489 140.028C62.5118 140.028 63.2164 140.774 63.2164 142.11V145.753H62.3083V142.329C62.3083 141.317 61.8908 140.832 60.9932 140.832C60.0955 140.832 59.5267 141.437 59.5267 142.423V145.753H58.6186ZM66.1493 145.753V139.068H63.7226V138.222H69.5154V139.068H67.0887V145.753H66.1493ZM71.2272 139.042C70.8827 139.042 70.6009 138.76 70.6009 138.415C70.6009 138.071 70.8827 137.789 71.2272 137.789C71.5716 137.789 71.8534 138.071 71.8534 138.415C71.8534 138.76 71.5716 139.042 71.2272 139.042ZM70.7679 145.753V140.127H71.676V145.753H70.7679ZM73.3878 145.753V140.127H74.2958V140.973H74.3793C74.6611 140.378 75.1882 140.028 76.018 140.028C77.281 140.028 77.9855 140.774 77.9855 142.11V145.753H77.0774V142.329C77.0774 141.317 76.6599 140.832 75.7623 140.832C74.8647 140.832 74.2958 141.437 74.2958 142.423V145.753H73.3878ZM81.6282 145.795C80.4696 145.795 79.9843 145.367 79.9843 144.292V140.879H79.0971V140.127H79.9843V138.671H80.9237V140.127H82.1553V140.879H80.9237V144.062C80.9237 144.725 81.1533 144.991 81.7378 144.991C81.8996 144.991 81.9883 144.986 82.1553 144.97V145.742C81.9779 145.774 81.8056 145.795 81.6282 145.795ZM91.316 141.862H95.5271V146.555H94.7576V142.589H92.0642V146.597H91.316V141.862ZM92.8765 136.796H93.6567V142.087H92.8765V136.796ZM93.3361 139.116H95.944V139.864H93.3361V139.116ZM91.7008 145.357H95.121V146.106H91.7008V145.357ZM87.137 137.748V140.334H90.0762V137.748H87.137ZM86.4957 137.16H90.7282V140.922H86.4957V137.16ZM87.2866 138.282L87.6821 138.175C87.7747 138.432 87.8531 138.713 87.9172 139.019C87.9885 139.319 88.0312 139.579 88.0455 139.8L87.618 139.917C87.6108 139.696 87.5752 139.433 87.5111 139.126C87.4541 138.82 87.3793 138.538 87.2866 138.282ZM87.6393 144.396L88.1738 144.331C88.2521 144.624 88.3163 144.944 88.3661 145.293C88.4231 145.635 88.4516 145.935 88.4516 146.191L87.8959 146.266C87.903 146.009 87.8816 145.71 87.8317 145.368C87.7819 145.019 87.7177 144.695 87.6393 144.396ZM88.6654 144.331L89.1784 144.225C89.3067 144.495 89.4207 144.791 89.5204 145.112C89.6273 145.432 89.6986 145.71 89.7342 145.945L89.1891 146.074C89.1606 145.838 89.0965 145.557 88.9967 145.229C88.9041 144.901 88.7937 144.602 88.6654 144.331ZM89.6915 144.192L90.1831 143.989C90.3755 144.239 90.5572 144.513 90.7282 144.812C90.9063 145.112 91.0346 145.372 91.113 145.593L90.5786 145.828C90.5002 145.6 90.3755 145.333 90.2045 145.026C90.0406 144.72 89.8696 144.442 89.6915 144.192ZM86.7309 144.353L87.2973 144.513C87.2475 144.905 87.1691 145.293 87.0622 145.678C86.9624 146.063 86.7986 146.373 86.5705 146.608L86.0148 146.309C86.2285 146.088 86.3888 145.803 86.4957 145.454C86.6097 145.097 86.6881 144.73 86.7309 144.353ZM89.467 138.143L89.9373 138.314C89.8447 138.592 89.7485 138.888 89.6487 139.201C89.5489 139.515 89.4492 139.775 89.3494 139.981L89.0074 139.853C89.0573 139.696 89.1107 139.518 89.1677 139.319C89.2319 139.112 89.2889 138.905 89.3387 138.699C89.3958 138.492 89.4385 138.307 89.467 138.143ZM86.1965 143.231C86.5884 143.209 87.0408 143.188 87.5538 143.166C88.074 143.138 88.6262 143.109 89.2105 143.081C89.7948 143.045 90.3791 143.013 90.9633 142.985L90.942 143.626C90.3791 143.662 89.8126 143.701 89.2426 143.744C88.6725 143.779 88.131 143.815 87.618 143.85C87.1049 143.879 86.6418 143.907 86.2285 143.936L86.1965 143.231ZM86.4209 141.659H90.803V142.301H86.4209V141.659ZM88.2913 137.448H88.8364V140.644H88.9219V143.412H88.2058V140.644H88.2913V137.448ZM102.004 141.862H106.215V146.555H105.446V142.589H102.752V146.597H102.004V141.862ZM103.565 136.796H104.345V142.087H103.565V136.796ZM104.024 139.116H106.632V139.864H104.024V139.116ZM102.389 145.357H105.809V146.106H102.389V145.357ZM97.8251 137.748V140.334H100.764V137.748H97.8251ZM97.1838 137.16H101.416V140.922H97.1838V137.16ZM97.9747 138.282L98.3701 138.175C98.4628 138.432 98.5412 138.713 98.6053 139.019C98.6765 139.319 98.7193 139.579 98.7335 139.8L98.306 139.917C98.2989 139.696 98.2633 139.433 98.1991 139.126C98.1421 138.82 98.0673 138.538 97.9747 138.282ZM98.3274 144.396L98.8618 144.331C98.9402 144.624 99.0043 144.944 99.0542 145.293C99.1112 145.635 99.1397 145.935 99.1397 146.191L98.5839 146.266C98.591 146.009 98.5697 145.71 98.5198 145.368C98.4699 145.019 98.4058 144.695 98.3274 144.396ZM99.3534 144.331L99.8665 144.225C99.9947 144.495 100.109 144.791 100.208 145.112C100.315 145.432 100.387 145.71 100.422 145.945L99.8772 146.074C99.8487 145.838 99.7845 145.557 99.6848 145.229C99.5921 144.901 99.4817 144.602 99.3534 144.331ZM100.38 144.192L100.871 143.989C101.064 144.239 101.245 144.513 101.416 144.812C101.594 145.112 101.723 145.372 101.801 145.593L101.267 145.828C101.188 145.6 101.064 145.333 100.893 145.026C100.729 144.72 100.558 144.442 100.38 144.192ZM97.4189 144.353L97.9854 144.513C97.9355 144.905 97.8571 145.293 97.7502 145.678C97.6505 146.063 97.4866 146.373 97.2586 146.608L96.7028 146.309C96.9166 146.088 97.0769 145.803 97.1838 145.454C97.2978 145.097 97.3762 144.73 97.4189 144.353ZM100.155 138.143L100.625 138.314C100.533 138.592 100.437 138.888 100.337 139.201C100.237 139.515 100.137 139.775 100.037 139.981L99.6955 139.853C99.7453 139.696 99.7988 139.518 99.8558 139.319C99.9199 139.112 99.9769 138.905 100.027 138.699C100.084 138.492 100.127 138.307 100.155 138.143ZM96.8845 143.231C97.2764 143.209 97.7289 143.188 98.2419 143.166C98.762 143.138 99.3143 143.109 99.8985 143.081C100.483 143.045 101.067 143.013 101.651 142.985L101.63 143.626C101.067 143.662 100.501 143.701 99.9306 143.744C99.3606 143.779 98.819 143.815 98.306 143.85C97.793 143.879 97.3298 143.907 96.9166 143.936L96.8845 143.231ZM97.109 141.659H101.491V142.301H97.109V141.659ZM98.9794 137.448H99.5245V140.644H99.61V143.412H98.8939V140.644H98.9794V137.448ZM108.545 140.505H111.923V141.285H108.545V140.505ZM108.545 143.883H111.976V144.652H108.545V143.883ZM116.091 137.523H116.903V143.904C116.903 144.132 116.871 144.321 116.807 144.47C116.75 144.613 116.636 144.72 116.465 144.791C116.294 144.862 116.066 144.909 115.781 144.93C115.503 144.951 115.165 144.962 114.766 144.962C114.751 144.877 114.726 144.784 114.691 144.684C114.662 144.577 114.627 144.474 114.584 144.374C114.541 144.267 114.498 144.175 114.456 144.096C114.776 144.103 115.068 144.111 115.332 144.118C115.603 144.118 115.785 144.118 115.877 144.118C115.963 144.111 116.02 144.093 116.048 144.064C116.077 144.036 116.091 143.979 116.091 143.893V137.523ZM108.15 137.737L108.951 138.036V145.571H108.15V137.737ZM111.42 136.796L112.104 137.459C111.784 137.609 111.427 137.758 111.035 137.908C110.651 138.05 110.252 138.186 109.838 138.314C109.425 138.442 109.023 138.563 108.631 138.677C108.609 138.578 108.57 138.464 108.513 138.335C108.463 138.207 108.41 138.097 108.353 138.004C108.716 137.897 109.087 137.776 109.464 137.641C109.849 137.505 110.209 137.363 110.544 137.213C110.886 137.064 111.178 136.925 111.42 136.796ZM112.639 137.523H116.54V138.325H113.451V146.565H112.639V137.523ZM121.51 143.144V142.298H125.017V143.144H121.51ZM136.315 137.48L136.924 137.053C137.13 137.231 137.344 137.427 137.565 137.641C137.786 137.854 137.993 138.068 138.185 138.282C138.377 138.489 138.531 138.677 138.645 138.848L137.993 139.319C137.886 139.148 137.74 138.955 137.554 138.742C137.369 138.521 137.166 138.3 136.945 138.079C136.731 137.858 136.521 137.659 136.315 137.48ZM129.389 139.939H138.901V140.697H129.389V139.939ZM129.228 143.07C129.649 142.992 130.141 142.896 130.703 142.782C131.273 142.668 131.872 142.547 132.499 142.418C133.133 142.283 133.764 142.147 134.391 142.012L134.455 142.728C133.871 142.864 133.279 143.003 132.681 143.145C132.089 143.28 131.516 143.412 130.96 143.541C130.411 143.662 129.912 143.776 129.464 143.883L129.228 143.07ZM131.676 137.865H132.478V145.571C132.478 145.835 132.442 146.034 132.371 146.17C132.307 146.305 132.185 146.405 132.007 146.469C131.843 146.533 131.612 146.572 131.313 146.587C131.02 146.608 130.654 146.619 130.212 146.619C130.198 146.54 130.176 146.451 130.148 146.351C130.119 146.259 130.084 146.163 130.041 146.063C129.998 145.963 129.959 145.878 129.923 145.806C130.265 145.813 130.579 145.817 130.864 145.817C131.149 145.824 131.338 145.824 131.43 145.817C131.523 145.81 131.587 145.789 131.623 145.753C131.658 145.724 131.676 145.664 131.676 145.571V137.865ZM133.707 136.903L134.273 137.577C133.86 137.719 133.393 137.851 132.873 137.972C132.36 138.086 131.829 138.193 131.281 138.293C130.739 138.392 130.212 138.478 129.699 138.549C129.677 138.457 129.642 138.346 129.592 138.218C129.549 138.082 129.503 137.968 129.453 137.876C129.952 137.797 130.465 137.708 130.992 137.609C131.519 137.502 132.018 137.388 132.488 137.267C132.959 137.145 133.365 137.024 133.707 136.903ZM134.776 136.86H135.62C135.613 137.837 135.645 138.774 135.716 139.671C135.794 140.562 135.905 141.385 136.047 142.14C136.19 142.889 136.357 143.541 136.55 144.096C136.749 144.645 136.967 145.072 137.202 145.379C137.437 145.678 137.683 145.828 137.939 145.828C138.089 145.828 138.199 145.682 138.271 145.39C138.349 145.09 138.402 144.595 138.431 143.904C138.516 143.989 138.623 144.075 138.752 144.16C138.88 144.239 138.997 144.299 139.104 144.342C139.061 144.934 138.994 145.397 138.901 145.732C138.809 146.066 138.68 146.302 138.516 146.437C138.352 146.572 138.135 146.64 137.864 146.64C137.522 146.64 137.205 146.519 136.913 146.277C136.628 146.034 136.372 145.692 136.144 145.251C135.923 144.802 135.727 144.274 135.556 143.669C135.392 143.063 135.253 142.397 135.139 141.67C135.025 140.936 134.939 140.163 134.882 139.351C134.825 138.538 134.79 137.708 134.776 136.86ZM137.683 141.189L138.388 141.488C138.046 142.144 137.626 142.767 137.127 143.359C136.635 143.943 136.09 144.477 135.492 144.962C134.9 145.447 134.273 145.86 133.611 146.202C133.546 146.109 133.461 146.002 133.354 145.881C133.254 145.76 133.155 145.657 133.055 145.571C133.696 145.265 134.309 144.887 134.893 144.438C135.477 143.982 136.008 143.476 136.486 142.921C136.963 142.365 137.362 141.788 137.683 141.189ZM140.878 138.496H144.128V145.486H140.878V144.759H143.39V139.212H140.878V138.496ZM140.408 138.496H141.146V146.33H140.408V138.496ZM140.825 141.467H143.775V142.172H140.825V141.467ZM142.043 136.754L142.909 136.903C142.802 137.238 142.685 137.577 142.556 137.919C142.435 138.261 142.321 138.553 142.214 138.795L141.562 138.635C141.627 138.457 141.687 138.257 141.744 138.036C141.808 137.815 141.865 137.591 141.915 137.363C141.972 137.135 142.015 136.932 142.043 136.754ZM145.656 138.464H148.937V139.201H145.656V138.464ZM148.649 138.464H149.407C149.407 138.464 149.407 138.489 149.407 138.538C149.407 138.588 149.407 138.649 149.407 138.72C149.407 138.784 149.404 138.834 149.397 138.87C149.354 140.095 149.311 141.132 149.269 141.98C149.233 142.828 149.187 143.523 149.13 144.064C149.073 144.599 149.005 145.015 148.927 145.315C148.855 145.614 148.766 145.828 148.659 145.956C148.538 146.113 148.41 146.22 148.275 146.277C148.146 146.341 147.986 146.384 147.794 146.405C147.615 146.419 147.38 146.423 147.088 146.416C146.803 146.416 146.507 146.405 146.201 146.384C146.194 146.27 146.165 146.138 146.116 145.988C146.073 145.838 146.012 145.714 145.934 145.614C146.29 145.642 146.611 145.66 146.896 145.667C147.188 145.675 147.398 145.678 147.526 145.678C147.633 145.678 147.719 145.667 147.783 145.646C147.854 145.618 147.922 145.568 147.986 145.496C148.071 145.404 148.146 145.215 148.21 144.93C148.282 144.638 148.342 144.225 148.392 143.69C148.442 143.156 148.488 142.475 148.531 141.649C148.574 140.815 148.613 139.81 148.649 138.635V138.464ZM145.87 136.732L146.639 136.903C146.511 137.438 146.354 137.961 146.169 138.474C145.991 138.98 145.791 139.458 145.57 139.907C145.357 140.355 145.129 140.751 144.886 141.093C144.837 141.05 144.769 141 144.683 140.943C144.605 140.879 144.523 140.822 144.438 140.772C144.352 140.715 144.277 140.669 144.213 140.633C144.462 140.313 144.691 139.946 144.897 139.532C145.104 139.112 145.289 138.663 145.453 138.186C145.617 137.708 145.756 137.224 145.87 136.732ZM145.378 141.232L146.009 140.879C146.208 141.129 146.415 141.403 146.629 141.702C146.849 142.001 147.053 142.29 147.238 142.568C147.43 142.846 147.583 143.092 147.697 143.305L147.013 143.733C146.906 143.512 146.76 143.259 146.575 142.974C146.397 142.682 146.201 142.386 145.987 142.087C145.781 141.781 145.578 141.496 145.378 141.232ZM154.132 142.023H160.491V142.76H154.132V142.023ZM154.848 138.485H159.871V142.322H159.123V139.223H155.575V142.322H154.848V138.485ZM156.9 136.828H157.637V140.901C157.637 141.471 157.598 142.03 157.52 142.579C157.448 143.12 157.295 143.637 157.06 144.128C156.825 144.613 156.476 145.065 156.013 145.486C155.55 145.899 154.93 146.266 154.153 146.587C154.117 146.53 154.071 146.462 154.014 146.384C153.957 146.312 153.896 146.241 153.832 146.17C153.768 146.099 153.708 146.038 153.651 145.988C154.377 145.689 154.955 145.354 155.382 144.983C155.817 144.613 156.141 144.21 156.355 143.776C156.576 143.334 156.722 142.874 156.793 142.397C156.864 141.912 156.9 141.414 156.9 140.901V136.828ZM157.755 142.333C157.969 143.188 158.304 143.936 158.76 144.577C159.216 145.211 159.803 145.682 160.523 145.988C160.466 146.038 160.402 146.102 160.331 146.18C160.267 146.259 160.202 146.337 160.138 146.416C160.081 146.501 160.035 146.576 159.999 146.64C159.244 146.262 158.628 145.721 158.15 145.015C157.673 144.303 157.317 143.459 157.082 142.482L157.755 142.333ZM151.353 137.555H153.8V144.577H151.353V143.85H153.052V138.282H151.353V137.555ZM151.385 140.665H153.512V141.371H151.385V140.665ZM150.979 137.555H151.716V145.454H150.979V137.555ZM165.782 142.878H166.54V145.026H165.782V142.878ZM161.41 145.732H171.008V146.298H161.41V145.732ZM161.432 138.474H170.976V138.987H161.432V138.474ZM161.41 141.691H171.019V142.247H161.41V141.691ZM162.233 140.623H170.239V141.125H162.233V140.623ZM162.564 137.427H169.811V140.078H162.5V139.575H169.009V137.929H162.564V137.427ZM165.75 136.764H166.562V141.905H165.75V136.764ZM163.409 144.192V144.759H169.02V144.192H163.409ZM163.409 143.188V143.733H169.02V143.188H163.409ZM162.629 142.718H169.832V145.229H162.629V142.718ZM172.237 139.03H181.557V139.842H172.237V139.03ZM174.364 143.797H179.345V144.609H174.364V143.797ZM176.459 136.786H177.303V146.608H176.459V136.786ZM176.202 139.297L176.929 139.532C176.609 140.288 176.217 141.011 175.754 141.702C175.29 142.386 174.777 143.006 174.214 143.562C173.652 144.111 173.064 144.563 172.451 144.919C172.408 144.855 172.351 144.784 172.28 144.706C172.209 144.62 172.137 144.538 172.066 144.46C172.002 144.381 171.938 144.314 171.874 144.257C172.323 144.021 172.757 143.729 173.178 143.38C173.605 143.031 174.008 142.639 174.385 142.204C174.77 141.763 175.116 141.296 175.422 140.804C175.729 140.313 175.989 139.81 176.202 139.297ZM177.56 139.329C177.845 140.006 178.212 140.662 178.661 141.296C179.11 141.923 179.612 142.49 180.168 142.995C180.731 143.494 181.318 143.893 181.931 144.192C181.867 144.249 181.796 144.317 181.717 144.396C181.646 144.474 181.575 144.559 181.504 144.652C181.432 144.738 181.372 144.82 181.322 144.898C180.702 144.549 180.107 144.103 179.537 143.562C178.974 143.013 178.465 142.397 178.009 141.713C177.553 141.029 177.168 140.316 176.854 139.575L177.56 139.329Z" fill="#17120D"/>
<path d="M49.1783 161.042V156.282H49.9466V156.997H50.0173C50.2557 156.494 50.7017 156.198 51.4039 156.198C52.4725 156.198 53.0687 156.829 53.0687 157.96V161.042H52.3003V158.145C52.3003 157.288 51.947 156.878 51.1875 156.878C50.428 156.878 49.9466 157.39 49.9466 158.225V161.042H49.1783ZM60.8549 155.127H64.2282V155.634H60.8549V155.127ZM60.8549 156.394H64.2282V156.909H60.8549V156.394ZM59.7968 157.678H64.9789V158.284H59.7968V157.678ZM60.5474 153.789H64.5809V154.377H61.1986V157.994H60.5474V153.789ZM59.7968 160.997C60.1887 160.943 60.662 160.87 61.2167 160.78C61.7774 160.683 62.3502 160.587 62.935 160.49L62.9621 161.078C62.4195 161.181 61.8829 161.28 61.3523 161.377C60.8218 161.479 60.3455 161.567 59.9234 161.639L59.7968 160.997ZM62.5461 157.958C62.6787 158.465 62.8596 158.932 63.0887 159.36C63.3178 159.782 63.6012 160.153 63.9388 160.472C64.2765 160.786 64.6654 161.027 65.1055 161.196C65.0512 161.238 64.9939 161.292 64.9336 161.359C64.8794 161.431 64.8281 161.503 64.7799 161.576C64.7317 161.648 64.6895 161.714 64.6533 161.775C64.189 161.564 63.7821 161.28 63.4324 160.924C63.0887 160.563 62.7963 160.141 62.5551 159.658C62.32 159.176 62.1301 158.645 61.9854 158.067L62.5461 157.958ZM64.382 158.528L64.9427 158.862C64.6895 159.067 64.4121 159.275 64.1107 159.486C63.8152 159.691 63.5409 159.863 63.2877 160.002L62.8717 159.731C63.0345 159.622 63.2063 159.499 63.3872 159.36C63.5741 159.221 63.7549 159.08 63.9298 158.935C64.1107 158.784 64.2614 158.648 64.382 158.528ZM60.5565 157.886H61.2076V161.015L60.5565 161.141V157.886ZM57.0837 157.859H59.4079V158.474H57.0837V157.859ZM59.1095 157.859H59.7878C59.7878 157.859 59.7848 157.877 59.7787 157.913C59.7787 157.949 59.7787 157.991 59.7787 158.039C59.7787 158.088 59.7757 158.127 59.7697 158.157C59.7214 158.887 59.6702 159.48 59.6159 159.939C59.5617 160.391 59.5014 160.738 59.4351 160.979C59.3687 161.214 59.2904 161.383 59.1999 161.485C59.1215 161.576 59.0341 161.639 58.9377 161.675C58.8472 161.717 58.7357 161.741 58.603 161.747C58.4885 161.759 58.3317 161.765 58.1328 161.765C57.9398 161.765 57.7379 161.759 57.5268 161.747C57.5208 161.651 57.4997 161.542 57.4635 161.422C57.4334 161.301 57.3912 161.199 57.3369 161.114C57.5479 161.132 57.7409 161.144 57.9157 161.151C58.0966 161.157 58.2292 161.16 58.3136 161.16C58.392 161.16 58.4553 161.151 58.5036 161.132C58.5518 161.12 58.594 161.093 58.6302 161.051C58.7025 160.985 58.7658 160.843 58.8201 160.626C58.8743 160.403 58.9256 160.077 58.9738 159.649C59.0281 159.221 59.0733 158.663 59.1095 157.976V157.859ZM57.1108 155.996H57.7348C57.7047 156.303 57.6655 156.632 57.6173 156.981C57.5751 157.331 57.5298 157.672 57.4816 158.003C57.4394 158.329 57.3972 158.615 57.355 158.862L56.7219 158.781C56.7702 158.54 56.8184 158.26 56.8666 157.94C56.9149 157.614 56.9601 157.283 57.0023 156.945C57.0505 156.602 57.0867 156.285 57.1108 155.996ZM57.2103 155.996H59.019V154.549H56.8395V153.916H59.6431V156.62H57.2103V155.996Z" fill="#6F6961"/>
<g clip-path="url(#clip5_7944_27614)">
<path d="M268.92 145.404C269.242 145.083 269.762 145.083 270.083 145.404L273.92 149.241C274.24 149.562 274.24 150.082 273.92 150.403L270.083 154.24C269.762 154.56 269.242 154.56 268.92 154.24C268.599 153.919 268.599 153.398 268.92 153.077L272.176 149.821L268.92 146.566C268.6 146.245 268.6 145.725 268.92 145.404Z" fill="#29241D"/>
</g>
<defs>
<clipPath id="clip0_7944_27614">
<rect width="19.7318" height="19.7318" fill="white" transform="translate(22.1543 41.3555)"/>
</clipPath>
<clipPath id="clip1_7944_27614">
<rect width="13.1545" height="13.1545" fill="white" transform="translate(264.691 44.6445)"/>
</clipPath>
<clipPath id="clip2_7944_27614">
<rect width="19.7318" height="19.7318" fill="white" transform="translate(22.1543 90.5312)"/>
</clipPath>
<clipPath id="clip3_7944_27614">
<rect width="13.1545" height="13.1545" fill="white" transform="translate(264.691 93.8203)"/>
</clipPath>
<clipPath id="clip4_7944_27614">
<rect width="19.7318" height="19.7318" fill="white" transform="translate(22.1543 139.531)"/>
</clipPath>
<clipPath id="clip5_7944_27614">
<rect width="13.1545" height="13.1545" fill="white" transform="translate(264.691 142.82)"/>
</clipPath>
</defs>
</svg>
