<svg width="41" height="41" viewBox="0 0 41 41" fill="none" xmlns="http://www.w3.org/2000/svg">
<g clip-path="url(#clip0_6527_1281)">
<path d="M30.7056 0H9.39967C4.20838 0 0 4.20838 0 9.39967V30.7056C0 35.8969 4.20838 40.1053 9.39967 40.1053H30.7056C35.8969 40.1053 40.1053 35.8969 40.1053 30.7056V9.39967C40.1053 4.20838 35.8969 0 30.7056 0Z" fill="#00005B"/>
<path d="M16.4741 24.4579H10.2577L8.98769 28.4016C8.95432 28.552 8.82069 28.6522 8.67029 28.6356H5.52861C5.34485 28.6356 5.29471 28.5353 5.34485 28.3348L10.7257 12.9109C10.7758 12.7439 10.826 12.5935 10.8927 12.393C10.9596 12.0421 10.993 11.6744 10.993 11.3067C10.9763 11.2232 11.0431 11.1397 11.1266 11.1229H15.4547C15.5717 11.1229 15.6552 11.1731 15.672 11.2566L21.7712 28.3013C21.8214 28.4852 21.7712 28.5687 21.6042 28.5687H18.1116C17.9948 28.5855 17.8777 28.5018 17.8444 28.3849L16.4741 24.3744V24.4579ZM11.227 21.1325H15.4714C15.3712 20.7816 15.2374 20.3639 15.087 19.9293C14.9366 19.4781 14.7862 18.9936 14.6358 18.4923C14.4688 17.9742 14.3184 17.4729 14.1512 16.955C13.9841 16.437 13.8338 15.9523 13.7001 15.4676C13.5664 14.9998 13.4494 14.5652 13.3324 14.1642H13.299C13.1486 14.8828 12.9648 15.6014 12.7308 16.3198C12.4801 17.122 12.2295 17.9576 11.9622 18.7931C11.7449 19.6453 11.4775 20.4306 11.227 21.1325ZM31.6138 22.954H26.3166C26.3833 23.4721 26.5505 23.99 26.8345 24.4412C27.1353 24.8923 27.5531 25.2433 28.0545 25.4438C28.7229 25.728 29.4581 25.8784 30.1933 25.8616C30.7783 25.8448 31.3631 25.7947 31.9313 25.6778C32.441 25.6112 32.9404 25.4821 33.4185 25.2934C33.502 25.2267 33.5522 25.26 33.5522 25.4272V27.9839C33.5522 28.0506 33.5356 28.1175 33.5188 28.1844C33.4854 28.2346 33.4519 28.2679 33.4018 28.3013C32.8674 28.536 32.3062 28.7044 31.7308 28.8026C30.9491 28.953 30.1537 29.0202 29.3579 29.0031C28.0878 29.0031 27.0185 28.8026 26.1495 28.4183C25.3306 28.0674 24.6121 27.516 24.0439 26.8309C23.5149 26.1871 23.1225 25.4422 22.8909 24.6417C22.657 23.8563 22.54 23.0375 22.54 22.202C22.54 21.2996 22.6736 20.414 22.9578 19.545C23.2242 18.7083 23.6497 17.931 24.2111 17.2557C24.7625 16.5873 25.4476 16.0526 26.233 15.6681C27.0185 15.2838 27.9542 15.1502 29.0237 15.1502C29.9093 15.1335 30.7949 15.3006 31.6138 15.6681C32.2989 15.9689 32.9005 16.4201 33.3684 17.0051C33.8028 17.5731 34.1537 18.2082 34.371 18.9101C34.5883 19.5784 34.6886 20.2636 34.6886 20.9487C34.6886 21.3498 34.6718 21.7007 34.6551 22.0182C34.6217 22.3356 34.6049 22.5697 34.5883 22.7201C34.5716 22.837 34.4713 22.9372 34.3543 22.9372C34.254 22.9372 34.0702 22.954 33.8028 22.9707C33.5356 23.0041 33.218 23.0209 32.8337 23.0209C32.4493 23.0209 32.0482 22.954 31.6138 22.954ZM26.3166 20.5143H29.8424C30.277 20.5143 30.5944 20.5143 30.7949 20.4975C30.9287 20.4808 31.0623 20.4474 31.1794 20.3639V20.1967C31.1799 19.9865 31.146 19.7777 31.0791 19.5784C30.7783 18.6427 29.8926 18.0077 28.9067 18.0411C28.4532 18.0157 28.002 18.1221 27.6076 18.3474C27.2132 18.5728 26.8925 18.9075 26.6841 19.3111C26.4836 19.6954 26.3667 20.0965 26.3166 20.5143Z" fill="#9999FF"/>
</g>
<defs>
<clipPath id="clip0_6527_1281">
<rect width="40.1053" height="40.1053" fill="white"/>
</clipPath>
</defs>
</svg>
