<svg width="41" height="41" viewBox="0 0 41 41" fill="none" xmlns="http://www.w3.org/2000/svg">
<g clip-path="url(#clip0_6527_1277)">
<path d="M30.7056 0H9.39967C4.20838 0 0 4.20838 0 9.39967V30.7056C0 35.8969 4.20838 40.1053 9.39967 40.1053H30.7056C35.8969 40.1053 40.1053 35.8969 40.1053 30.7056V9.39967C40.1053 4.20838 35.8969 0 30.7056 0Z" fill="white"/>
<path d="M15.8749 35.0924C18.6421 35.0924 20.888 32.8465 20.888 30.0792V25.066H15.8749C13.1076 25.066 10.8617 27.3119 10.8617 30.0792C10.8617 32.8465 13.1076 35.0924 15.8749 35.0924Z" fill="#0ACF83"/>
<path d="M10.8617 20.0525C10.8617 17.2852 13.1076 15.0393 15.8749 15.0393H20.888V25.0656H15.8749C13.1076 25.0656 10.8617 22.8197 10.8617 20.0525Z" fill="#A259FF"/>
<path d="M10.8618 10.0263C10.8618 7.25908 13.1077 5.01318 15.875 5.01318H20.8881V15.0395H15.875C13.1077 15.0395 10.8618 12.7936 10.8618 10.0263Z" fill="#F24E1E"/>
<path d="M20.8881 5.01318H25.9012C28.6685 5.01318 30.9144 7.25908 30.9144 10.0263C30.9144 12.7936 28.6685 15.0395 25.9012 15.0395H20.8881V5.01318Z" fill="#FF7262"/>
<path d="M30.9144 20.0525C30.9144 22.8197 28.6685 25.0656 25.9012 25.0656C23.134 25.0656 20.8881 22.8197 20.8881 20.0525C20.8881 17.2852 23.134 15.0393 25.9012 15.0393C28.6685 15.0393 30.9144 17.2852 30.9144 20.0525Z" fill="#1ABCFE"/>
</g>
<defs>
<clipPath id="clip0_6527_1277">
<rect width="40.1053" height="40.1053" fill="white"/>
</clipPath>
</defs>
</svg>
