<svg width="41" height="41" viewBox="0 0 41 41" fill="none" xmlns="http://www.w3.org/2000/svg">
<g clip-path="url(#clip0_6527_1278)">
<path d="M30.7056 0H9.39967C4.20838 0 0 4.20838 0 9.39967V30.7056C0 35.8969 4.20838 40.1053 9.39967 40.1053H30.7056C35.8969 40.1053 40.1053 35.8969 40.1053 30.7056V9.39967C40.1053 4.20838 35.8969 0 30.7056 0Z" fill="#330000"/>
<path d="M19.3842 23.8646H13.1679L11.8978 27.7916C11.8645 27.942 11.7308 28.0423 11.5804 28.0255H8.43877C8.255 28.0255 8.20487 27.9253 8.255 27.7248L13.6358 12.2341C13.686 12.0671 13.7361 11.8832 13.8028 11.6826C13.8697 11.3317 13.9031 10.9642 13.9031 10.5965C13.8865 10.513 13.9532 10.4294 14.0369 10.4128H18.3648C18.4986 10.4128 18.5653 10.4629 18.5821 10.5464L24.6814 27.7583C24.7315 27.942 24.6814 28.0255 24.5144 28.0255H21.0218C20.9049 28.0423 20.7879 27.9588 20.7545 27.8418L19.3842 23.8646ZM14.1372 20.4724H18.3816C18.2813 20.1215 18.1477 19.7037 17.9973 19.2693C17.8469 18.8181 17.6965 18.3335 17.5461 17.8322C17.3789 17.3141 17.2286 16.8128 17.0614 16.2948C16.8944 15.7768 16.744 15.2921 16.6102 14.8076C16.4766 14.3398 16.3596 13.9052 16.2427 13.5041H16.2092C16.0588 14.2228 15.875 14.9414 15.6411 15.6598C15.3904 16.4619 15.1398 17.2974 14.8724 18.133C14.6566 18.9217 14.4114 19.7021 14.1372 20.4724ZM28.4079 13.337C27.8564 13.3538 27.3218 13.1365 26.9207 12.7522C26.5364 12.3344 26.3359 11.7829 26.3525 11.2149C26.3359 10.6466 26.553 10.112 26.9541 9.72752C27.3551 9.34307 27.89 9.1427 28.4414 9.1427C29.0931 9.1427 29.5944 9.34323 29.962 9.72752C30.3324 10.1326 30.5302 10.6662 30.5134 11.2149C30.5302 11.7829 30.3297 12.3344 29.9286 12.7522C29.5443 13.1532 28.9761 13.3705 28.4079 13.337ZM26.5364 27.8418V14.9747C26.5364 14.8076 26.6032 14.7407 26.7536 14.7407H30.0622C30.2126 14.7407 30.2795 14.8243 30.2795 14.9747V27.8418C30.2795 28.0255 30.2126 28.1092 30.0622 28.1092H26.7871C26.6199 28.1092 26.5364 28.0089 26.5364 27.8418Z" fill="#FF9A00"/>
</g>
<defs>
<clipPath id="clip0_6527_1278">
<rect width="40.1053" height="40.1053" fill="white"/>
</clipPath>
</defs>
</svg>
