<svg width="41" height="41" viewBox="0 0 41 41" fill="none" xmlns="http://www.w3.org/2000/svg">
<g clip-path="url(#clip0_6527_1280)">
<path d="M30.7056 0H9.39967C4.20838 0 0 4.20838 0 9.39967V30.7056C0 35.8969 4.20838 40.1053 9.39967 40.1053H30.7056C35.8969 40.1053 40.1053 35.8969 40.1053 30.7056V9.39967C40.1053 4.20838 35.8969 0 30.7056 0Z" fill="#001E36"/>
<path d="M9.02368 27.892V10.6969C9.02368 10.5798 9.07381 10.5131 9.19084 10.5131C9.47487 10.5131 9.74229 10.5131 10.1266 10.4963C10.5276 10.4796 10.9454 10.4796 11.3966 10.463C11.8478 10.4462 12.3324 10.4462 12.8504 10.4294C13.3684 10.4128 13.8697 10.4128 14.371 10.4128C15.7413 10.4128 16.8776 10.5798 17.8135 10.9308C18.6523 11.2157 19.4172 11.6838 20.0526 12.3011C20.591 12.8414 21.007 13.4911 21.2726 14.2061C21.5232 14.9079 21.6568 15.6265 21.6568 16.3785C21.6568 17.8156 21.3226 19.0021 20.6542 19.9378C19.9857 20.8736 19.05 21.5754 17.9639 21.9765C16.8274 22.3943 15.5742 22.5447 14.204 22.5447C13.8029 22.5447 13.5355 22.5447 13.3684 22.5279C13.2012 22.5112 12.9673 22.5112 12.6499 22.5112V27.8752C12.6665 27.9923 12.583 28.0925 12.466 28.1093H9.22421C9.09058 28.1093 9.02368 28.0424 9.02368 27.892ZM12.6665 13.7381V19.3529C12.9006 19.3696 13.1177 19.3864 13.3182 19.3864H14.204C14.8557 19.3864 15.5074 19.2861 16.1256 19.0856C16.6604 18.9352 17.1282 18.6177 17.4959 18.1998C17.8468 17.7822 18.014 17.214 18.014 16.4788C18.0297 15.9565 17.8963 15.4406 17.6296 14.9914C17.3455 14.557 16.9445 14.2228 16.4599 14.0389C15.8416 13.7883 15.1731 13.688 14.488 13.7048C14.0536 13.7048 13.6692 13.7048 13.3518 13.7215C13.0174 13.7048 12.7835 13.7215 12.6665 13.7381ZM32.0842 18.3336C31.5829 18.0662 31.0482 17.8824 30.48 17.7654C29.8617 17.6318 29.2435 17.5481 28.6084 17.5481C28.2742 17.5315 27.9233 17.5817 27.6057 17.6652C27.3886 17.7153 27.2047 17.8323 27.0878 17.9993C27.0042 18.1331 26.954 18.3001 26.954 18.4505C26.954 18.6009 27.0209 18.7513 27.1212 18.8851C27.2716 19.0688 27.4721 19.2192 27.6894 19.3363C28.0768 19.5369 28.4727 19.7208 28.8758 19.8877C29.7782 20.1885 30.6472 20.6062 31.4493 21.1075C32.0007 21.4584 32.4519 21.9263 32.7693 22.4946C33.0367 23.0292 33.1703 23.6141 33.1537 24.2156C33.1703 25.0011 32.9364 25.7865 32.502 26.4382C32.0359 27.1052 31.3855 27.622 30.6304 27.9254C29.8115 28.2763 28.8089 28.4602 27.6057 28.4602C26.8372 28.4602 26.0852 28.3933 25.3332 28.2429C24.7438 28.1411 24.1706 27.9613 23.6287 27.7082C23.5117 27.6413 23.4282 27.5243 23.4448 27.3907V24.4831C23.4448 24.4329 23.4616 24.366 23.5117 24.3327C23.5618 24.2993 23.612 24.3159 23.6621 24.3494C24.3138 24.7337 24.9989 25.0011 25.7343 25.1681C26.3692 25.3353 27.0377 25.4188 27.706 25.4188C28.3411 25.4188 28.7923 25.3353 29.0931 25.1849C29.3603 25.0679 29.5443 24.7838 29.5443 24.4831C29.5443 24.2492 29.4105 24.0319 29.1432 23.8146C28.8758 23.5974 28.3243 23.3468 27.5055 23.0292C26.6655 22.7332 25.8679 22.3287 25.1327 21.8261C24.609 21.4529 24.1751 20.9677 23.8626 20.4056C23.5952 19.8709 23.4616 19.2861 23.4783 18.7012C23.4783 17.9827 23.6789 17.2975 24.0464 16.6793C24.4642 16.0108 25.0825 15.4761 25.801 15.1418C26.5865 14.7408 27.5724 14.557 28.7588 14.557C29.444 14.557 30.1458 14.6071 30.8309 14.7074C31.3322 14.7743 31.8168 14.9079 32.268 15.0917C32.3349 15.1084 32.4018 15.1753 32.4351 15.2421C32.4519 15.309 32.4685 15.3759 32.4685 15.4426V18.1665C32.4685 18.2334 32.4351 18.3001 32.385 18.3336C32.2346 18.367 32.1511 18.367 32.0842 18.3336Z" fill="#31A8FF"/>
</g>
<defs>
<clipPath id="clip0_6527_1280">
<rect width="40.1053" height="40.1053" fill="white"/>
</clipPath>
</defs>
</svg>
