<svg width="41" height="41" viewBox="0 0 41 41" fill="none" xmlns="http://www.w3.org/2000/svg">
<g clip-path="url(#clip0_6527_1279)">
<path d="M30.7056 0H9.39967C4.20838 0 0 4.20838 0 9.39967V30.7056C0 35.8969 4.20838 40.1053 9.39967 40.1053H30.7056C35.8969 40.1053 40.1053 35.8969 40.1053 30.7056V9.39967C40.1053 4.20838 35.8969 0 30.7056 0Z" fill="#0073AA"/>
<path d="M6.61328 20.0517C6.61328 25.3711 9.70468 29.9682 14.1874 32.1467L7.77681 14.5825C7.00852 16.3034 6.61205 18.1671 6.61328 20.0517ZM29.1246 19.3735C29.1246 17.7127 28.528 16.5625 28.0163 15.6672C27.335 14.5602 26.6965 13.6228 26.6965 12.5158C26.6965 11.2804 27.6335 10.1305 28.9532 10.1305C29.0129 10.1305 29.0693 10.1378 29.1274 10.1411C26.7364 7.9507 23.551 6.61328 20.0522 6.61328C15.3573 6.61328 11.2266 9.0221 8.82377 12.6707C9.13898 12.6801 9.43616 12.6869 9.68854 12.6869C11.0943 12.6869 13.2701 12.5161 13.2701 12.5161C13.9945 12.4735 14.0801 13.5375 13.3563 13.6232C13.3563 13.6232 12.6283 13.7089 11.8182 13.7514L16.712 28.308L19.653 19.4875L17.5592 13.7509C16.8356 13.7085 16.15 13.6228 16.15 13.6228C15.4258 13.5803 15.5107 12.473 16.2349 12.5158C16.2349 12.5158 18.4542 12.6863 19.7747 12.6863C21.1803 12.6863 23.3563 12.5158 23.3563 12.5158C24.0813 12.473 24.1664 13.5371 23.4425 13.6228C23.4425 13.6228 22.7129 13.7085 21.9044 13.7509L26.761 28.1973L28.1014 23.718C28.6825 21.8591 29.1246 20.524 29.1246 19.3735Z" fill="white"/>
<path d="M20.2881 21.2273L16.256 32.9439C17.4888 33.307 18.7672 33.4914 20.0524 33.4915C21.5723 33.492 23.0813 33.2344 24.515 32.7296C24.4777 32.6709 24.4457 32.6089 24.4194 32.5445L20.2881 21.2273ZM31.8444 13.6041C31.9054 14.0622 31.9357 14.5238 31.9349 14.9859C31.9349 16.3496 31.6802 17.8827 30.913 19.7996L26.8081 31.6681C30.8034 29.3382 33.4907 25.0098 33.4907 20.052C33.4909 17.7154 32.8942 15.5182 31.8444 13.6041Z" fill="white"/>
<path d="M20.0523 4.38647C11.4143 4.38647 4.38647 11.4138 4.38647 20.0517C4.38647 28.6906 11.4143 35.7176 20.0523 35.7176C28.6898 35.7176 35.7187 28.6906 35.7187 20.0517C35.7184 11.4138 28.6898 4.38647 20.0523 4.38647ZM20.0523 34.9996C11.8103 34.9996 5.10477 28.2939 5.10477 20.0517C5.10477 11.8099 11.8102 5.10477 20.0523 5.10477C28.2938 5.10477 34.9989 11.8099 34.9989 20.0517C34.9989 28.2939 28.2938 34.9996 20.0523 34.9996Z" fill="white"/>
</g>
<defs>
<clipPath id="clip0_6527_1279">
<rect width="40.1053" height="40.1053" fill="white"/>
</clipPath>
</defs>
</svg>
