<svg width="240" height="240" viewBox="0 0 240 240" fill="none" xmlns="http://www.w3.org/2000/svg">
<rect width="240" height="240" fill="#CBF8ED"/>
<g clip-path="url(#clip0_751_842)">
<path d="M176.76 84.4977C171.206 94.1531 158.91 97.4647 149.296 91.8864L112.951 70.8243C103.337 65.246 100.039 52.8972 105.594 43.2419C111.148 33.5866 123.444 30.2749 133.058 35.8532L169.389 56.9154C179.017 62.4789 182.315 74.8424 176.76 84.4977Z" fill="url(#paint0_linear_751_842)"/>
<path opacity="0.7" d="M133.027 153.233L132.924 153.248C121.903 154.381 112.055 146.345 110.926 135.277L102.734 55.2967C101.606 44.2284 109.607 34.3376 120.628 33.2043L120.731 33.1896C131.752 32.0562 141.6 40.0925 142.729 51.1608L150.921 131.141C152.064 142.194 144.048 152.085 133.027 153.233Z" fill="url(#paint1_linear_751_842)"/>
<path d="M86.7165 42.6684C93.1188 42.6684 98.3089 37.456 98.3089 31.0261C98.3089 24.5962 93.1188 19.3838 86.7165 19.3838C80.3141 19.3838 75.124 24.5962 75.124 31.0261C75.124 37.456 80.3141 42.6684 86.7165 42.6684Z" fill="url(#paint2_linear_751_842)"/>
<path d="M162.06 151.233C156.505 160.888 144.209 164.2 134.595 158.622L70.976 121.752C61.362 116.174 58.0646 103.825 63.619 94.155C69.1734 84.4997 81.4693 81.188 91.0833 86.7663L154.688 123.651C164.317 129.229 167.614 141.578 162.06 151.233Z" fill="url(#paint3_linear_751_842)"/>
<path d="M64.6309 206.182L65.0119 203.106V183.53H72.3836V200.898H85.9692L88.2701 205.755C88.2701 205.858 87.9184 205.961 87.2296 206.05C86.5407 206.138 85.3537 206.182 83.6683 206.182H64.6309Z" fill="#191919"/>
<path d="M98.5291 206.565C95.9644 206.565 94.0299 205.961 92.7109 204.754C91.3919 203.547 90.7324 201.59 90.7324 198.896V183.53H98.2067V198.205C98.2067 199.411 98.4998 200.221 99.086 200.633C99.6722 201.045 100.405 201.251 101.27 201.251H106.223C107.044 201.251 107.762 201.045 108.378 200.618C108.993 200.192 109.301 199.397 109.301 198.205V183.53H116.673V198.896C116.673 201.59 116.028 203.547 114.738 204.754C113.448 205.961 111.514 206.565 108.92 206.565H98.5291Z" fill="#191919"/>
<path d="M129.642 206.181C126.902 206.181 124.923 205.578 123.692 204.371C122.461 203.164 121.846 201.206 121.846 198.513V191.463C121.846 188.696 122.52 186.665 123.883 185.399C125.246 184.133 127.151 183.485 129.642 183.485H140.839C142.598 183.485 143.946 183.588 144.884 183.78C145.822 183.971 146.291 184.177 146.291 184.383L145.104 189.196C144.459 189.123 143.213 189.034 141.367 188.946C139.52 188.858 137.175 188.813 134.361 188.813H132.412C131.211 188.813 130.404 189.034 129.979 189.49C129.554 189.947 129.349 190.624 129.349 191.551V198.145C129.349 199.013 129.54 199.69 129.906 200.161C130.273 200.632 131.108 200.868 132.412 200.868H133.98C137.644 200.868 140.429 200.824 142.349 200.735C144.269 200.647 145.412 200.544 145.807 200.441L148.152 204.606C148.152 204.739 147.888 204.93 147.361 205.18C146.833 205.431 145.954 205.666 144.708 205.872C143.462 206.078 141.748 206.181 139.549 206.181H129.642Z" fill="#191919"/>
<path d="M160.096 206.182V196.821L148.899 183.53H158.147L161.943 188.814L163.701 191.625H164.082L165.841 188.814L169.564 183.53H178.811L177.316 185.841L167.497 196.968V206.182H160.096V206.182Z" fill="#191919"/>
</g>
<defs>
<linearGradient id="paint0_linear_751_842" x1="102.893" y1="63.8622" x2="179.457" y2="63.8622" gradientUnits="userSpaceOnUse">
<stop stop-color="#2F4858"/>
<stop offset="1" stop-color="#00BF8A"/>
</linearGradient>
<linearGradient id="paint1_linear_751_842" x1="106.448" y1="79.0931" x2="141.575" y2="100.486" gradientUnits="userSpaceOnUse">
<stop stop-color="#57E260"/>
<stop offset="1" stop-color="#00BF8A"/>
</linearGradient>
<linearGradient id="paint2_linear_751_842" x1="75.134" y1="31.0189" x2="98.3045" y2="31.0189" gradientUnits="userSpaceOnUse">
<stop stop-color="#57E260"/>
<stop offset="1" stop-color="#00BF8A"/>
</linearGradient>
<linearGradient id="paint3_linear_751_842" x1="60.9224" y1="122.701" x2="164.756" y2="122.701" gradientUnits="userSpaceOnUse">
<stop stop-color="#2F4858"/>
<stop offset="1" stop-color="#00BF8A"/>
</linearGradient>
<clipPath id="clip0_751_842">
<rect width="118.533" height="201.231" fill="white" transform="translate(60.9229 19.3838)"/>
</clipPath>
</defs>
</svg>
