<svg width="240" height="240" viewBox="0 0 240 240" fill="none" xmlns="http://www.w3.org/2000/svg">
<rect width="240" height="240" fill="#DDF6FF"/>
<path d="M52.6152 192.255V164.705C56.5263 164.705 60.1285 166.644 62.2899 169.807L74.8463 188.378V164.705C78.2427 164.705 81.0216 167.46 81.0216 170.827V198.378C77.1105 198.378 73.5083 196.439 71.3469 193.276L58.7905 174.705V198.378C55.3941 198.378 52.6152 195.623 52.6152 192.255Z" fill="#191919"/>
<path d="M98.9297 198.99C96.5625 198.99 94.5041 198.48 92.6515 197.357C90.7989 196.337 89.358 194.807 88.2258 192.97C87.0937 191.133 86.5791 188.888 86.5791 186.439C86.5791 183.99 87.0937 181.848 88.2258 179.909C89.358 178.072 90.7989 176.542 92.6515 175.521C94.5041 174.501 96.5625 173.889 98.9297 173.889C101.194 173.889 103.252 174.399 105.208 175.521C107.06 176.542 108.501 178.072 109.634 179.909C110.766 181.746 111.28 183.99 111.28 186.439C111.28 188.888 110.766 191.031 109.634 192.97C108.501 194.807 107.06 196.337 105.208 197.357C103.355 198.48 101.297 198.99 98.9297 198.99ZM98.9297 193.582C100.576 193.582 101.914 192.97 103.149 191.745C104.385 190.521 104.899 188.786 104.899 186.337C104.899 183.99 104.282 182.154 103.149 180.929C101.914 179.705 100.576 179.093 98.9297 179.093C97.2829 179.093 95.842 179.705 94.7099 180.929C93.5778 182.154 92.9602 183.888 92.9602 186.337C92.9602 188.684 93.5778 190.521 94.7099 191.745C95.945 192.97 97.3859 193.582 98.9297 193.582Z" fill="#191919"/>
<path d="M116.838 192.256V174.501H122.396L123.013 178.991C123.837 177.461 125.072 176.236 126.615 175.318C128.159 174.399 129.909 173.991 131.967 173.991V180.522H130.218C128.88 180.522 127.645 180.726 126.615 181.134C125.586 181.542 124.763 182.256 124.145 183.277C123.528 184.297 123.219 185.726 123.219 187.562V198.48C119.617 198.378 116.838 195.623 116.838 192.256Z" fill="#191919"/>
<path d="M150.288 198.99C148.435 198.99 146.891 198.684 145.553 197.97C144.215 197.256 143.083 196.337 142.26 195.113L141.539 198.378C138.452 198.378 135.981 195.929 135.981 192.868V163.787C139.378 163.787 142.157 166.542 142.157 169.909V177.97C142.98 176.95 144.009 176.032 145.244 175.215C146.479 174.399 148.229 173.991 150.185 173.991C152.449 173.991 154.507 174.501 156.257 175.624C158.007 176.746 159.448 178.174 160.477 180.113C161.506 182.052 162.021 184.195 162.021 186.542C162.021 188.889 161.506 191.133 160.477 192.97C159.448 194.807 158.007 196.337 156.257 197.358C154.61 198.378 152.552 198.99 150.288 198.99ZM148.95 193.582C150.905 193.582 152.552 192.97 153.89 191.644C155.228 190.317 155.845 188.582 155.845 186.542C155.845 184.501 155.228 182.766 153.89 181.44C152.552 180.113 151.008 179.399 148.95 179.399C146.994 179.399 145.347 180.113 144.009 181.44C142.774 182.766 142.054 184.501 142.054 186.542C142.054 188.582 142.671 190.317 144.009 191.644C145.347 192.868 146.994 193.582 148.95 193.582Z" fill="#191919"/>
<path d="M168.504 208.99L174.062 196.848C173.136 196.848 172.415 196.338 172.003 195.521L165.828 180.726C164.593 177.767 166.754 174.604 169.945 174.604L176.738 191.44L183.737 174.604C186.824 174.604 188.883 177.767 187.648 180.624L177.664 203.072C176.12 206.644 172.518 208.99 168.504 208.99Z" fill="#191919"/>
<path d="M83.0101 105.156C75.1487 101.559 71.8227 92.566 75.1487 85.0717L94.8023 41.9051C98.1283 34.4109 107.199 30.8137 114.758 34.1111C122.62 37.4086 125.946 46.4016 122.62 54.1956L103.268 97.3622C99.6401 105.156 90.5692 108.454 83.0101 105.156Z" fill="url(#paint0_linear_751_805)"/>
<path d="M141.365 142.926C133.806 139.628 130.178 130.635 133.504 122.841L152.25 81.1737C155.576 73.6795 164.647 70.0822 172.508 73.3797C180.068 76.6771 183.696 85.6702 180.37 93.4642L161.623 135.132C158.297 142.926 149.226 146.523 141.365 142.926Z" fill="url(#paint1_linear_751_805)"/>
<path d="M72.4262 144.725C79.2728 144.725 84.8231 139.222 84.8231 132.434C84.8231 125.646 79.2728 120.144 72.4262 120.144C65.5796 120.144 60.0293 125.646 60.0293 132.434C60.0293 139.222 65.5796 144.725 72.4262 144.725Z" fill="url(#paint2_linear_751_805)"/>
<path d="M76.3572 135.133C71.8218 133.934 68.4958 130.936 66.984 127.039C66.0769 124.641 62.7509 124.641 61.5414 126.739C60.0296 129.737 59.7272 133.634 61.2391 137.231C63.0532 141.428 66.984 144.426 71.5194 144.725C78.4738 145.325 83.9163 140.529 84.8234 134.234C82.1021 135.433 79.0785 135.732 76.3572 135.133Z" fill="url(#paint3_linear_751_805)"/>
<path d="M95.4073 40.4061L85.127 63.4882C94.1979 59.891 100.85 64.0878 104.176 71.582L127.458 123.442L133.203 136.332C135.622 141.728 140.762 144.725 146.204 145.325C146.507 145.325 146.809 145.325 147.111 145.325C147.414 145.325 147.716 145.325 148.019 145.325C153.461 145.025 158.601 141.728 161.02 136.332L176.743 101.559C174.929 103.957 172.812 106.055 170.091 107.254C162.532 110.852 153.461 107.254 149.833 99.4604L146.809 93.1653L123.527 40.4061C120.201 32.9119 111.13 29.3147 103.269 32.6121C103.269 32.6121 98.1286 34.7105 95.4073 40.4061Z" fill="url(#paint4_linear_751_805)"/>
<defs>
<linearGradient id="paint0_linear_751_805" x1="56.6638" y1="85.8546" x2="102.911" y2="24.698" gradientUnits="userSpaceOnUse">
<stop stop-color="#0064D6"/>
<stop offset="1" stop-color="#0031B2"/>
</linearGradient>
<linearGradient id="paint1_linear_751_805" x1="201.947" y1="110.572" x2="145.365" y2="151.821" gradientUnits="userSpaceOnUse">
<stop stop-color="#0064D6"/>
<stop offset="1" stop-color="#0031B2"/>
</linearGradient>
<linearGradient id="paint2_linear_751_805" x1="60.1291" y1="134.516" x2="84.69" y2="130.3" gradientUnits="userSpaceOnUse">
<stop stop-color="#0064D6"/>
<stop offset="1" stop-color="#0031B2"/>
</linearGradient>
<linearGradient id="paint3_linear_751_805" x1="60.4441" y1="136.361" x2="84.3383" y2="132.259" gradientUnits="userSpaceOnUse">
<stop stop-color="#0064D6"/>
<stop offset="1" stop-color="#00CEFF"/>
</linearGradient>
<linearGradient id="paint4_linear_751_805" x1="85.0018" y1="88.2734" x2="176.975" y2="88.2734" gradientUnits="userSpaceOnUse">
<stop stop-color="#0064D6"/>
<stop offset="1" stop-color="#00CEFF"/>
</linearGradient>
</defs>
</svg>
